<mxfile host="app.diagrams.net" agent="Mozilla/5.0 (Macintosh; Intel Mac OS X 10_15_7) AppleWebKit/537.36 (KHTML, like Gecko) Chrome/138.0.0.0 Safari/537.36" version="28.0.6">
  <diagram name="Page-1" id="2a216829-ef6e-dabb-86c1-c78162f3ba2b">
    <mxGraphModel dx="1099" dy="336" grid="1" gridSize="10" guides="1" tooltips="1" connect="1" arrows="1" fold="1" page="1" pageScale="1" pageWidth="850" pageHeight="1100" background="none" math="0" shadow="0">
      <root>
        <mxCell id="0" />
        <mxCell id="1" parent="0" />
        <mxCell id="HCkOUnHi7pvoqi1z__WX-1" value="Организация" style="swimlane;horizontal=0;whiteSpace=wrap;html=1;startSize=30;" parent="1" vertex="1">
          <mxGeometry x="210" y="1200" width="950" height="970" as="geometry" />
        </mxCell>
        <mxCell id="HCkOUnHi7pvoqi1z__WX-2" value="Сотрудник" style="swimlane;horizontal=0;whiteSpace=wrap;html=1;" parent="HCkOUnHi7pvoqi1z__WX-1" vertex="1">
          <mxGeometry x="30" width="920" height="270" as="geometry" />
        </mxCell>
        <mxCell id="pdrf_oqs9kJigKSngzth-86" style="edgeStyle=orthogonalEdgeStyle;rounded=0;orthogonalLoop=1;jettySize=auto;html=1;" parent="HCkOUnHi7pvoqi1z__WX-2" source="pdrf_oqs9kJigKSngzth-5" edge="1">
          <mxGeometry relative="1" as="geometry">
            <mxPoint x="140.00000000000023" y="135.00000000000023" as="targetPoint" />
          </mxGeometry>
        </mxCell>
        <mxCell id="pdrf_oqs9kJigKSngzth-5" value="" style="points=[[0.145,0.145,0],[0.5,0,0],[0.855,0.145,0],[1,0.5,0],[0.855,0.855,0],[0.5,1,0],[0.145,0.855,0],[0,0.5,0]];shape=mxgraph.bpmn.event;html=1;verticalLabelPosition=bottom;labelBackgroundColor=#ffffff;verticalAlign=top;align=center;perimeter=ellipsePerimeter;outlineConnect=0;aspect=fixed;outline=standard;symbol=general;" parent="HCkOUnHi7pvoqi1z__WX-2" vertex="1">
          <mxGeometry x="60" y="110" width="50" height="50" as="geometry" />
        </mxCell>
        <mxCell id="pdrf_oqs9kJigKSngzth-59" style="edgeStyle=orthogonalEdgeStyle;rounded=0;orthogonalLoop=1;jettySize=auto;html=1;" parent="HCkOUnHi7pvoqi1z__WX-2" source="pdrf_oqs9kJigKSngzth-19" target="pdrf_oqs9kJigKSngzth-90" edge="1">
          <mxGeometry relative="1" as="geometry">
            <mxPoint x="379" y="75" as="targetPoint" />
          </mxGeometry>
        </mxCell>
        <mxCell id="pdrf_oqs9kJigKSngzth-19" value="Прикрепить файл" style="points=[[0.25,0,0],[0.5,0,0],[0.75,0,0],[1,0.25,0],[1,0.5,0],[1,0.75,0],[0.75,1,0],[0.5,1,0],[0.25,1,0],[0,0.75,0],[0,0.5,0],[0,0.25,0]];shape=mxgraph.bpmn.task2;whiteSpace=wrap;rectStyle=rounded;size=10;html=1;container=1;expand=0;collapsible=0;taskMarker=user;" parent="HCkOUnHi7pvoqi1z__WX-2" vertex="1">
          <mxGeometry x="230" y="35" width="120" height="80" as="geometry" />
        </mxCell>
        <mxCell id="pdrf_oqs9kJigKSngzth-61" style="edgeStyle=orthogonalEdgeStyle;rounded=0;orthogonalLoop=1;jettySize=auto;html=1;" parent="HCkOUnHi7pvoqi1z__WX-2" source="pdrf_oqs9kJigKSngzth-90" target="pdrf_oqs9kJigKSngzth-25" edge="1">
          <mxGeometry relative="1" as="geometry">
            <mxPoint x="499" y="75" as="sourcePoint" />
          </mxGeometry>
        </mxCell>
        <mxCell id="pdrf_oqs9kJigKSngzth-25" value="&lt;em data-end=&quot;568&quot; data-start=&quot;530&quot;&gt;Указать согласующих лиц и подписанта&lt;/em&gt;" style="points=[[0.25,0,0],[0.5,0,0],[0.75,0,0],[1,0.25,0],[1,0.5,0],[1,0.75,0],[0.75,1,0],[0.5,1,0],[0.25,1,0],[0,0.75,0],[0,0.5,0],[0,0.25,0]];shape=mxgraph.bpmn.task2;whiteSpace=wrap;rectStyle=rounded;size=10;html=1;container=1;expand=0;collapsible=0;taskMarker=user;" parent="HCkOUnHi7pvoqi1z__WX-2" vertex="1">
          <mxGeometry x="615" y="95" width="120" height="80" as="geometry" />
        </mxCell>
        <mxCell id="pdrf_oqs9kJigKSngzth-91" style="edgeStyle=orthogonalEdgeStyle;rounded=0;orthogonalLoop=1;jettySize=auto;html=1;" parent="HCkOUnHi7pvoqi1z__WX-2" source="pdrf_oqs9kJigKSngzth-83" target="pdrf_oqs9kJigKSngzth-90" edge="1">
          <mxGeometry relative="1" as="geometry" />
        </mxCell>
        <mxCell id="pdrf_oqs9kJigKSngzth-83" value="Отсканировать документ" style="points=[[0.25,0,0],[0.5,0,0],[0.75,0,0],[1,0.25,0],[1,0.5,0],[1,0.75,0],[0.75,1,0],[0.5,1,0],[0.25,1,0],[0,0.75,0],[0,0.5,0],[0,0.25,0]];shape=mxgraph.bpmn.task2;whiteSpace=wrap;rectStyle=rounded;size=10;html=1;container=1;expand=0;collapsible=0;taskMarker=user;" parent="HCkOUnHi7pvoqi1z__WX-2" vertex="1">
          <mxGeometry x="230" y="155" width="120" height="80" as="geometry" />
        </mxCell>
        <mxCell id="pdrf_oqs9kJigKSngzth-88" style="edgeStyle=orthogonalEdgeStyle;rounded=0;orthogonalLoop=1;jettySize=auto;html=1;" parent="HCkOUnHi7pvoqi1z__WX-2" target="pdrf_oqs9kJigKSngzth-19" edge="1">
          <mxGeometry relative="1" as="geometry">
            <Array as="points">
              <mxPoint x="165" y="75" />
            </Array>
            <mxPoint x="165" y="110" as="sourcePoint" />
          </mxGeometry>
        </mxCell>
        <mxCell id="pdrf_oqs9kJigKSngzth-121" value="Электронный файл" style="edgeLabel;html=1;align=center;verticalAlign=middle;resizable=0;points=[];" parent="pdrf_oqs9kJigKSngzth-88" vertex="1" connectable="0">
          <mxGeometry x="-0.0969" y="2" relative="1" as="geometry">
            <mxPoint x="-15" y="15" as="offset" />
          </mxGeometry>
        </mxCell>
        <mxCell id="pdrf_oqs9kJigKSngzth-89" style="edgeStyle=orthogonalEdgeStyle;rounded=0;orthogonalLoop=1;jettySize=auto;html=1;" parent="HCkOUnHi7pvoqi1z__WX-2" target="pdrf_oqs9kJigKSngzth-83" edge="1">
          <mxGeometry relative="1" as="geometry">
            <Array as="points">
              <mxPoint x="165" y="195" />
            </Array>
            <mxPoint x="165" y="160" as="sourcePoint" />
          </mxGeometry>
        </mxCell>
        <mxCell id="pdrf_oqs9kJigKSngzth-122" value="Печатный документ" style="edgeLabel;html=1;align=center;verticalAlign=middle;resizable=0;points=[];" parent="pdrf_oqs9kJigKSngzth-89" vertex="1" connectable="0">
          <mxGeometry x="-0.4338" y="-2" relative="1" as="geometry">
            <mxPoint x="1" y="-6" as="offset" />
          </mxGeometry>
        </mxCell>
        <mxCell id="pdrf_oqs9kJigKSngzth-90" value="Заполнить / отредактировать сведения по документу" style="points=[[0.25,0,0],[0.5,0,0],[0.75,0,0],[1,0.25,0],[1,0.5,0],[1,0.75,0],[0.75,1,0],[0.5,1,0],[0.25,1,0],[0,0.75,0],[0,0.5,0],[0,0.25,0]];shape=mxgraph.bpmn.task2;whiteSpace=wrap;rectStyle=rounded;size=10;html=1;container=1;expand=0;collapsible=0;taskMarker=abstract;isLoopComp=1;isLoopStandard=1;" parent="HCkOUnHi7pvoqi1z__WX-2" vertex="1">
          <mxGeometry x="430" y="85" width="135" height="100" as="geometry" />
        </mxCell>
        <mxCell id="1AihCm6kMVY_3IpBuIRc-1" value="" style="points=[[0.25,0.25,0],[0.5,0,0],[0.75,0.25,0],[1,0.5,0],[0.75,0.75,0],[0.5,1,0],[0.25,0.75,0],[0,0.5,0]];shape=mxgraph.bpmn.gateway2;html=1;verticalLabelPosition=bottom;labelBackgroundColor=#ffffff;verticalAlign=top;align=center;perimeter=rhombusPerimeter;outlineConnect=0;outline=none;symbol=none;gwType=exclusive;" parent="HCkOUnHi7pvoqi1z__WX-2" vertex="1">
          <mxGeometry x="141" y="110" width="50" height="50" as="geometry" />
        </mxCell>
        <mxCell id="HCkOUnHi7pvoqi1z__WX-4" value="Система" style="swimlane;horizontal=0;whiteSpace=wrap;html=1;" parent="HCkOUnHi7pvoqi1z__WX-1" vertex="1">
          <mxGeometry x="30" y="270" width="920" height="140" as="geometry" />
        </mxCell>
        <mxCell id="pdrf_oqs9kJigKSngzth-26" value="Определить руководителя сотрудника" style="points=[[0.25,0,0],[0.5,0,0],[0.75,0,0],[1,0.25,0],[1,0.5,0],[1,0.75,0],[0.75,1,0],[0.5,1,0],[0.25,1,0],[0,0.75,0],[0,0.5,0],[0,0.25,0]];shape=mxgraph.bpmn.task2;whiteSpace=wrap;rectStyle=rounded;size=10;html=1;container=1;expand=0;collapsible=0;taskMarker=script;" parent="HCkOUnHi7pvoqi1z__WX-4" vertex="1">
          <mxGeometry x="615" y="30" width="120" height="80" as="geometry" />
        </mxCell>
        <mxCell id="HCkOUnHi7pvoqi1z__WX-6" value="&lt;div&gt;Согласующие лица&lt;/div&gt;" style="swimlane;horizontal=0;whiteSpace=wrap;html=1;" parent="HCkOUnHi7pvoqi1z__WX-1" vertex="1">
          <mxGeometry x="30" y="550" width="920" height="140" as="geometry" />
        </mxCell>
        <mxCell id="pdrf_oqs9kJigKSngzth-98" style="edgeStyle=orthogonalEdgeStyle;rounded=0;orthogonalLoop=1;jettySize=auto;html=1;" parent="HCkOUnHi7pvoqi1z__WX-6" source="pdrf_oqs9kJigKSngzth-44" target="pdrf_oqs9kJigKSngzth-106" edge="1">
          <mxGeometry relative="1" as="geometry" />
        </mxCell>
        <mxCell id="pdrf_oqs9kJigKSngzth-44" value="Согласовать претензию другими лицами" style="points=[[0.25,0,0],[0.5,0,0],[0.75,0,0],[1,0.25,0],[1,0.5,0],[1,0.75,0],[0.75,1,0],[0.5,1,0],[0.25,1,0],[0,0.75,0],[0,0.5,0],[0,0.25,0]];shape=mxgraph.bpmn.task2;whiteSpace=wrap;rectStyle=rounded;size=10;html=1;container=1;expand=0;collapsible=0;taskMarker=user;" parent="HCkOUnHi7pvoqi1z__WX-6" vertex="1">
          <mxGeometry x="320" y="30" width="120" height="80" as="geometry" />
        </mxCell>
        <mxCell id="pdrf_oqs9kJigKSngzth-107" value="2 рабочих дня" style="edgeStyle=orthogonalEdgeStyle;rounded=0;orthogonalLoop=1;jettySize=auto;html=1;" parent="HCkOUnHi7pvoqi1z__WX-6" source="pdrf_oqs9kJigKSngzth-106" edge="1">
          <mxGeometry x="-1" y="-37" relative="1" as="geometry">
            <mxPoint x="-6" as="offset" />
            <mxPoint x="570" y="70" as="targetPoint" />
          </mxGeometry>
        </mxCell>
        <mxCell id="pdrf_oqs9kJigKSngzth-106" value="" style="points=[[0.145,0.145,0],[0.5,0,0],[0.855,0.145,0],[1,0.5,0],[0.855,0.855,0],[0.5,1,0],[0.145,0.855,0],[0,0.5,0]];shape=mxgraph.bpmn.event;html=1;verticalLabelPosition=bottom;labelBackgroundColor=#ffffff;verticalAlign=top;align=center;perimeter=ellipsePerimeter;outlineConnect=0;aspect=fixed;outline=standard;symbol=timer;" parent="HCkOUnHi7pvoqi1z__WX-6" vertex="1">
          <mxGeometry x="480" y="45" width="50" height="50" as="geometry" />
        </mxCell>
        <mxCell id="1AihCm6kMVY_3IpBuIRc-3" value="" style="points=[[0.25,0.25,0],[0.5,0,0],[0.75,0.25,0],[1,0.5,0],[0.75,0.75,0],[0.5,1,0],[0.25,0.75,0],[0,0.5,0]];shape=mxgraph.bpmn.gateway2;html=1;verticalLabelPosition=bottom;labelBackgroundColor=#ffffff;verticalAlign=top;align=center;perimeter=rhombusPerimeter;outlineConnect=0;outline=none;symbol=none;gwType=exclusive;" parent="HCkOUnHi7pvoqi1z__WX-6" vertex="1">
          <mxGeometry x="570" y="45" width="50" height="50" as="geometry" />
        </mxCell>
        <mxCell id="HCkOUnHi7pvoqi1z__WX-5" value="Руководитель" style="swimlane;horizontal=0;whiteSpace=wrap;html=1;" parent="HCkOUnHi7pvoqi1z__WX-1" vertex="1">
          <mxGeometry x="30" y="410" width="920" height="140" as="geometry" />
        </mxCell>
        <mxCell id="pdrf_oqs9kJigKSngzth-104" style="edgeStyle=orthogonalEdgeStyle;rounded=0;orthogonalLoop=1;jettySize=auto;html=1;" parent="HCkOUnHi7pvoqi1z__WX-5" source="pdrf_oqs9kJigKSngzth-30" target="pdrf_oqs9kJigKSngzth-8" edge="1">
          <mxGeometry relative="1" as="geometry" />
        </mxCell>
        <mxCell id="pdrf_oqs9kJigKSngzth-30" value="Согласовать претензию" style="points=[[0.25,0,0],[0.5,0,0],[0.75,0,0],[1,0.25,0],[1,0.5,0],[1,0.75,0],[0.75,1,0],[0.5,1,0],[0.25,1,0],[0,0.75,0],[0,0.5,0],[0,0.25,0]];shape=mxgraph.bpmn.task2;whiteSpace=wrap;rectStyle=rounded;size=10;html=1;container=1;expand=0;collapsible=0;taskMarker=user;" parent="HCkOUnHi7pvoqi1z__WX-5" vertex="1">
          <mxGeometry x="450" y="30" width="120" height="80" as="geometry" />
        </mxCell>
        <mxCell id="pdrf_oqs9kJigKSngzth-105" value="2 рабочих дня" style="edgeStyle=orthogonalEdgeStyle;rounded=0;orthogonalLoop=1;jettySize=auto;html=1;" parent="HCkOUnHi7pvoqi1z__WX-5" source="pdrf_oqs9kJigKSngzth-8" edge="1">
          <mxGeometry x="-1" y="-41" relative="1" as="geometry">
            <mxPoint x="10" y="1" as="offset" />
            <mxPoint x="320" y="70" as="targetPoint" />
          </mxGeometry>
        </mxCell>
        <mxCell id="pdrf_oqs9kJigKSngzth-8" value="" style="points=[[0.145,0.145,0],[0.5,0,0],[0.855,0.145,0],[1,0.5,0],[0.855,0.855,0],[0.5,1,0],[0.145,0.855,0],[0,0.5,0]];shape=mxgraph.bpmn.event;html=1;verticalLabelPosition=bottom;labelBackgroundColor=#ffffff;verticalAlign=top;align=center;perimeter=ellipsePerimeter;outlineConnect=0;aspect=fixed;outline=standard;symbol=timer;" parent="HCkOUnHi7pvoqi1z__WX-5" vertex="1">
          <mxGeometry x="360" y="45" width="50" height="50" as="geometry" />
        </mxCell>
        <mxCell id="1AihCm6kMVY_3IpBuIRc-2" value="" style="points=[[0.25,0.25,0],[0.5,0,0],[0.75,0.25,0],[1,0.5,0],[0.75,0.75,0],[0.5,1,0],[0.25,0.75,0],[0,0.5,0]];shape=mxgraph.bpmn.gateway2;html=1;verticalLabelPosition=bottom;labelBackgroundColor=#ffffff;verticalAlign=top;align=center;perimeter=rhombusPerimeter;outlineConnect=0;outline=none;symbol=none;gwType=exclusive;" parent="HCkOUnHi7pvoqi1z__WX-5" vertex="1">
          <mxGeometry x="271" y="45" width="50" height="50" as="geometry" />
        </mxCell>
        <mxCell id="HCkOUnHi7pvoqi1z__WX-7" value="Подписант" style="swimlane;horizontal=0;whiteSpace=wrap;html=1;" parent="HCkOUnHi7pvoqi1z__WX-1" vertex="1">
          <mxGeometry x="30" y="690" width="920" height="140" as="geometry" />
        </mxCell>
        <mxCell id="pdrf_oqs9kJigKSngzth-46" value="Подписать претензию" style="points=[[0.25,0,0],[0.5,0,0],[0.75,0,0],[1,0.25,0],[1,0.5,0],[1,0.75,0],[0.75,1,0],[0.5,1,0],[0.25,1,0],[0,0.75,0],[0,0.5,0],[0,0.25,0]];shape=mxgraph.bpmn.task2;whiteSpace=wrap;rectStyle=rounded;size=10;html=1;container=1;expand=0;collapsible=0;taskMarker=user;" parent="HCkOUnHi7pvoqi1z__WX-7" vertex="1">
          <mxGeometry x="160" y="30" width="120" height="80" as="geometry" />
        </mxCell>
        <mxCell id="pdrf_oqs9kJigKSngzth-115" value="" style="shape=mxgraph.bpmn.data2;labelPosition=center;verticalLabelPosition=bottom;align=center;verticalAlign=top;size=15;html=1;" parent="HCkOUnHi7pvoqi1z__WX-7" vertex="1">
          <mxGeometry x="339" y="60" width="40" height="60" as="geometry" />
        </mxCell>
        <mxCell id="pdrf_oqs9kJigKSngzth-116" value="" style="endArrow=none;dashed=1;html=1;rounded=0;entryX=0;entryY=0.5;entryDx=0;entryDy=0;entryPerimeter=0;exitX=1;exitY=0.75;exitDx=0;exitDy=0;exitPerimeter=0;" parent="HCkOUnHi7pvoqi1z__WX-7" source="pdrf_oqs9kJigKSngzth-46" target="pdrf_oqs9kJigKSngzth-115" edge="1">
          <mxGeometry width="50" height="50" relative="1" as="geometry">
            <mxPoint x="265" y="96" as="sourcePoint" />
            <mxPoint x="300" y="195" as="targetPoint" />
          </mxGeometry>
        </mxCell>
        <mxCell id="HCkOUnHi7pvoqi1z__WX-8" value="Канцелярия" style="swimlane;horizontal=0;whiteSpace=wrap;html=1;" parent="HCkOUnHi7pvoqi1z__WX-1" vertex="1">
          <mxGeometry x="30" y="830" width="920" height="140" as="geometry" />
        </mxCell>
        <mxCell id="pdrf_oqs9kJigKSngzth-102" style="edgeStyle=orthogonalEdgeStyle;rounded=0;orthogonalLoop=1;jettySize=auto;html=1;" parent="HCkOUnHi7pvoqi1z__WX-8" source="pdrf_oqs9kJigKSngzth-47" target="pdrf_oqs9kJigKSngzth-48" edge="1">
          <mxGeometry relative="1" as="geometry" />
        </mxCell>
        <mxCell id="pdrf_oqs9kJigKSngzth-47" value="Зарегистрировать документ" style="points=[[0.25,0,0],[0.5,0,0],[0.75,0,0],[1,0.25,0],[1,0.5,0],[1,0.75,0],[0.75,1,0],[0.5,1,0],[0.25,1,0],[0,0.75,0],[0,0.5,0],[0,0.25,0]];shape=mxgraph.bpmn.task2;whiteSpace=wrap;rectStyle=rounded;size=10;html=1;container=1;expand=0;collapsible=0;taskMarker=user;" parent="HCkOUnHi7pvoqi1z__WX-8" vertex="1">
          <mxGeometry x="330" y="30" width="120" height="80" as="geometry" />
        </mxCell>
        <mxCell id="pdrf_oqs9kJigKSngzth-103" style="edgeStyle=orthogonalEdgeStyle;rounded=0;orthogonalLoop=1;jettySize=auto;html=1;" parent="HCkOUnHi7pvoqi1z__WX-8" source="pdrf_oqs9kJigKSngzth-48" target="pdrf_oqs9kJigKSngzth-6" edge="1">
          <mxGeometry relative="1" as="geometry" />
        </mxCell>
        <mxCell id="pdrf_oqs9kJigKSngzth-48" value="Отправить претензию контрагенту" style="points=[[0.25,0,0],[0.5,0,0],[0.75,0,0],[1,0.25,0],[1,0.5,0],[1,0.75,0],[0.75,1,0],[0.5,1,0],[0.25,1,0],[0,0.75,0],[0,0.5,0],[0,0.25,0]];shape=mxgraph.bpmn.task2;whiteSpace=wrap;rectStyle=rounded;size=10;html=1;container=1;expand=0;collapsible=0;taskMarker=send;" parent="HCkOUnHi7pvoqi1z__WX-8" vertex="1">
          <mxGeometry x="498" y="30" width="120" height="80" as="geometry" />
        </mxCell>
        <mxCell id="pdrf_oqs9kJigKSngzth-6" value="" style="points=[[0.145,0.145,0],[0.5,0,0],[0.855,0.145,0],[1,0.5,0],[0.855,0.855,0],[0.5,1,0],[0.145,0.855,0],[0,0.5,0]];shape=mxgraph.bpmn.event;html=1;verticalLabelPosition=bottom;labelBackgroundColor=#ffffff;verticalAlign=top;align=center;perimeter=ellipsePerimeter;outlineConnect=0;aspect=fixed;outline=end;symbol=terminate2;" parent="HCkOUnHi7pvoqi1z__WX-8" vertex="1">
          <mxGeometry x="810" y="45" width="50" height="50" as="geometry" />
        </mxCell>
        <mxCell id="pdrf_oqs9kJigKSngzth-62" style="edgeStyle=orthogonalEdgeStyle;rounded=0;orthogonalLoop=1;jettySize=auto;html=1;" parent="HCkOUnHi7pvoqi1z__WX-1" source="pdrf_oqs9kJigKSngzth-25" target="pdrf_oqs9kJigKSngzth-26" edge="1">
          <mxGeometry relative="1" as="geometry" />
        </mxCell>
        <mxCell id="pdrf_oqs9kJigKSngzth-92" style="edgeStyle=orthogonalEdgeStyle;rounded=0;orthogonalLoop=1;jettySize=auto;html=1;" parent="HCkOUnHi7pvoqi1z__WX-1" source="pdrf_oqs9kJigKSngzth-26" target="pdrf_oqs9kJigKSngzth-30" edge="1">
          <mxGeometry relative="1" as="geometry">
            <Array as="points">
              <mxPoint x="705" y="480" />
            </Array>
          </mxGeometry>
        </mxCell>
        <mxCell id="pdrf_oqs9kJigKSngzth-94" style="edgeStyle=orthogonalEdgeStyle;rounded=0;orthogonalLoop=1;jettySize=auto;html=1;" parent="HCkOUnHi7pvoqi1z__WX-1" target="pdrf_oqs9kJigKSngzth-90" edge="1">
          <mxGeometry relative="1" as="geometry">
            <Array as="points">
              <mxPoint x="325" y="340" />
              <mxPoint x="527" y="340" />
            </Array>
            <mxPoint x="325" y="455" as="sourcePoint" />
          </mxGeometry>
        </mxCell>
        <mxCell id="pdrf_oqs9kJigKSngzth-123" value="Внесены корректировки" style="edgeLabel;html=1;align=center;verticalAlign=middle;resizable=0;points=[];" parent="pdrf_oqs9kJigKSngzth-94" vertex="1" connectable="0">
          <mxGeometry x="-0.7076" y="-1" relative="1" as="geometry">
            <mxPoint x="94" y="-56" as="offset" />
          </mxGeometry>
        </mxCell>
        <mxCell id="pdrf_oqs9kJigKSngzth-95" style="edgeStyle=orthogonalEdgeStyle;rounded=0;orthogonalLoop=1;jettySize=auto;html=1;" parent="HCkOUnHi7pvoqi1z__WX-1" target="pdrf_oqs9kJigKSngzth-44" edge="1">
          <mxGeometry relative="1" as="geometry">
            <Array as="points">
              <mxPoint x="230" y="480" />
              <mxPoint x="230" y="620" />
            </Array>
            <mxPoint x="300.0000000000002" y="480" as="sourcePoint" />
          </mxGeometry>
        </mxCell>
        <mxCell id="pdrf_oqs9kJigKSngzth-125" value="Согласовано" style="edgeLabel;html=1;align=center;verticalAlign=middle;resizable=0;points=[];" parent="pdrf_oqs9kJigKSngzth-95" vertex="1" connectable="0">
          <mxGeometry x="-0.7166" y="1" relative="1" as="geometry">
            <mxPoint x="7" y="-11" as="offset" />
          </mxGeometry>
        </mxCell>
        <mxCell id="pdrf_oqs9kJigKSngzth-99" style="edgeStyle=orthogonalEdgeStyle;rounded=0;orthogonalLoop=1;jettySize=auto;html=1;" parent="HCkOUnHi7pvoqi1z__WX-1" target="pdrf_oqs9kJigKSngzth-90" edge="1">
          <mxGeometry relative="1" as="geometry">
            <Array as="points">
              <mxPoint x="870" y="620" />
              <mxPoint x="870" y="40" />
              <mxPoint x="527" y="40" />
            </Array>
            <mxPoint x="650" y="620" as="sourcePoint" />
          </mxGeometry>
        </mxCell>
        <mxCell id="pdrf_oqs9kJigKSngzth-127" value="Внесены корректировки" style="edgeLabel;html=1;align=center;verticalAlign=middle;resizable=0;points=[];" parent="pdrf_oqs9kJigKSngzth-99" vertex="1" connectable="0">
          <mxGeometry x="-0.9104" y="1" relative="1" as="geometry">
            <mxPoint x="47" as="offset" />
          </mxGeometry>
        </mxCell>
        <mxCell id="pdrf_oqs9kJigKSngzth-100" style="edgeStyle=orthogonalEdgeStyle;rounded=0;orthogonalLoop=1;jettySize=auto;html=1;" parent="HCkOUnHi7pvoqi1z__WX-1" target="pdrf_oqs9kJigKSngzth-46" edge="1">
          <mxGeometry relative="1" as="geometry">
            <Array as="points">
              <mxPoint x="625" y="740" />
            </Array>
            <mxPoint x="625" y="645" as="sourcePoint" />
          </mxGeometry>
        </mxCell>
        <mxCell id="pdrf_oqs9kJigKSngzth-128" value="Согласовано" style="edgeLabel;html=1;align=center;verticalAlign=middle;resizable=0;points=[];" parent="pdrf_oqs9kJigKSngzth-100" vertex="1" connectable="0">
          <mxGeometry x="-0.8788" y="1" relative="1" as="geometry">
            <mxPoint x="44" as="offset" />
          </mxGeometry>
        </mxCell>
        <mxCell id="pdrf_oqs9kJigKSngzth-101" style="edgeStyle=orthogonalEdgeStyle;rounded=0;orthogonalLoop=1;jettySize=auto;html=1;" parent="HCkOUnHi7pvoqi1z__WX-1" source="pdrf_oqs9kJigKSngzth-46" target="pdrf_oqs9kJigKSngzth-47" edge="1">
          <mxGeometry relative="1" as="geometry">
            <Array as="points">
              <mxPoint x="110" y="760" />
              <mxPoint x="110" y="900" />
            </Array>
          </mxGeometry>
        </mxCell>
        <mxCell id="pdrf_oqs9kJigKSngzth-117" value="" style="endArrow=none;dashed=1;html=1;rounded=0;entryX=0.25;entryY=0;entryDx=0;entryDy=0;entryPerimeter=0;exitX=0.5;exitY=1;exitDx=0;exitDy=0;exitPerimeter=0;" parent="HCkOUnHi7pvoqi1z__WX-1" source="pdrf_oqs9kJigKSngzth-115" target="pdrf_oqs9kJigKSngzth-47" edge="1">
          <mxGeometry width="50" height="50" relative="1" as="geometry">
            <mxPoint x="380" y="780" as="sourcePoint" />
            <mxPoint x="439" y="780" as="targetPoint" />
          </mxGeometry>
        </mxCell>
        <mxCell id="pdrf_oqs9kJigKSngzth-129" value="Документ претензии" style="edgeLabel;html=1;align=center;verticalAlign=middle;resizable=0;points=[];" parent="pdrf_oqs9kJigKSngzth-117" vertex="1" connectable="0">
          <mxGeometry x="-0.5137" relative="1" as="geometry">
            <mxPoint x="61" as="offset" />
          </mxGeometry>
        </mxCell>
        <mxCell id="pdrf_oqs9kJigKSngzth-9" value="" style="points=[[0.145,0.145,0],[0.5,0,0],[0.855,0.145,0],[1,0.5,0],[0.855,0.855,0],[0.5,1,0],[0.145,0.855,0],[0,0.5,0]];shape=mxgraph.bpmn.event;html=1;verticalLabelPosition=bottom;labelBackgroundColor=#ffffff;verticalAlign=top;align=center;perimeter=ellipsePerimeter;outlineConnect=0;aspect=fixed;outline=standard;symbol=message;" parent="1" vertex="1">
          <mxGeometry x="1210" y="1560" width="50" height="50" as="geometry" />
        </mxCell>
        <mxCell id="pdrf_oqs9kJigKSngzth-10" value="" style="points=[[0.25,0.25,0],[0.5,0,0],[0.75,0.25,0],[1,0.5,0],[0.75,0.75,0],[0.5,1,0],[0.25,0.75,0],[0,0.5,0]];shape=mxgraph.bpmn.gateway2;html=1;verticalLabelPosition=bottom;labelBackgroundColor=#ffffff;verticalAlign=top;align=center;perimeter=rhombusPerimeter;outlineConnect=0;outline=none;symbol=none;gwType=parallel;" parent="1" vertex="1">
          <mxGeometry x="1330" y="1560" width="50" height="50" as="geometry" />
        </mxCell>
        <mxCell id="pdrf_oqs9kJigKSngzth-11" value="" style="points=[[0.25,0.25,0],[0.5,0,0],[0.75,0.25,0],[1,0.5,0],[0.75,0.75,0],[0.5,1,0],[0.25,0.75,0],[0,0.5,0]];shape=mxgraph.bpmn.gateway2;html=1;verticalLabelPosition=bottom;labelBackgroundColor=#ffffff;verticalAlign=top;align=center;perimeter=rhombusPerimeter;outlineConnect=0;outline=end;symbol=general;" parent="1" vertex="1">
          <mxGeometry x="1410" y="1560" width="50" height="50" as="geometry" />
        </mxCell>
        <mxCell id="pdrf_oqs9kJigKSngzth-12" value="" style="points=[[0.25,0.25,0],[0.5,0,0],[0.75,0.25,0],[1,0.5,0],[0.75,0.75,0],[0.5,1,0],[0.25,0.75,0],[0,0.5,0]];shape=mxgraph.bpmn.gateway2;html=1;verticalLabelPosition=bottom;labelBackgroundColor=#ffffff;verticalAlign=top;align=center;perimeter=rhombusPerimeter;outlineConnect=0;outline=none;symbol=none;" parent="1" vertex="1">
          <mxGeometry x="1270" y="1560" width="50" height="50" as="geometry" />
        </mxCell>
        <mxCell id="pdrf_oqs9kJigKSngzth-15" value="" style="points=[[0.25,0,0],[0.5,0,0],[0.75,0,0],[1,0.25,0],[1,0.5,0],[1,0.75,0],[0.75,1,0],[0.5,1,0],[0.25,1,0],[0,0.75,0],[0,0.5,0],[0,0.25,0]];shape=mxgraph.bpmn.task2;whiteSpace=wrap;rectStyle=rounded;size=10;html=1;container=1;expand=0;collapsible=0;taskMarker=script;" parent="1" vertex="1">
          <mxGeometry x="1520" y="1560" width="120" height="80" as="geometry" />
        </mxCell>
        <mxCell id="pdrf_oqs9kJigKSngzth-16" value="" style="points=[[0.25,0,0],[0.5,0,0],[0.75,0,0],[1,0.25,0],[1,0.5,0],[1,0.75,0],[0.75,1,0],[0.5,1,0],[0.25,1,0],[0,0.75,0],[0,0.5,0],[0,0.25,0]];shape=mxgraph.bpmn.task2;whiteSpace=wrap;rectStyle=rounded;size=10;html=1;container=1;expand=0;collapsible=0;taskMarker=user;" parent="1" vertex="1">
          <mxGeometry x="1700" y="1560" width="120" height="80" as="geometry" />
        </mxCell>
        <mxCell id="pdrf_oqs9kJigKSngzth-17" value="" style="points=[[0.25,0,0],[0.5,0,0],[0.75,0,0],[1,0.25,0],[1,0.5,0],[1,0.75,0],[0.75,1,0],[0.5,1,0],[0.25,1,0],[0,0.75,0],[0,0.5,0],[0,0.25,0]];shape=mxgraph.bpmn.task2;whiteSpace=wrap;rectStyle=rounded;size=10;html=1;container=1;expand=0;collapsible=0;taskMarker=receive;" parent="1" vertex="1">
          <mxGeometry x="1530" y="1685" width="120" height="80" as="geometry" />
        </mxCell>
        <mxCell id="pdrf_oqs9kJigKSngzth-18" value="" style="points=[[0.25,0,0],[0.5,0,0],[0.75,0,0],[1,0.25,0],[1,0.5,0],[1,0.75,0],[0.75,1,0],[0.5,1,0],[0.25,1,0],[0,0.75,0],[0,0.5,0],[0,0.25,0]];shape=mxgraph.bpmn.task2;whiteSpace=wrap;rectStyle=rounded;size=10;html=1;container=1;expand=0;collapsible=0;taskMarker=send;" parent="1" vertex="1">
          <mxGeometry x="1700" y="1685" width="120" height="80" as="geometry" />
        </mxCell>
        <mxCell id="3urvQe0UYtxkTPocbInU-1" value="" style="shape=datastore;html=1;labelPosition=center;verticalLabelPosition=bottom;align=center;verticalAlign=top;" vertex="1" parent="1">
          <mxGeometry x="1310" y="1410" width="50" height="50" as="geometry" />
        </mxCell>
        <mxCell id="3urvQe0UYtxkTPocbInU-64" value="" style="points=[[0.145,0.145,0],[0.5,0,0],[0.855,0.145,0],[1,0.5,0],[0.855,0.855,0],[0.5,1,0],[0.145,0.855,0],[0,0.5,0]];shape=mxgraph.bpmn.event;html=1;verticalLabelPosition=bottom;labelBackgroundColor=#ffffff;verticalAlign=top;align=center;perimeter=ellipsePerimeter;outlineConnect=0;aspect=fixed;outline=standard;symbol=message;" vertex="1" parent="1">
          <mxGeometry x="1400" y="2960" width="50" height="50" as="geometry" />
        </mxCell>
        <mxCell id="3urvQe0UYtxkTPocbInU-65" value="" style="points=[[0.25,0.25,0],[0.5,0,0],[0.75,0.25,0],[1,0.5,0],[0.75,0.75,0],[0.5,1,0],[0.25,0.75,0],[0,0.5,0]];shape=mxgraph.bpmn.gateway2;html=1;verticalLabelPosition=bottom;labelBackgroundColor=#ffffff;verticalAlign=top;align=center;perimeter=rhombusPerimeter;outlineConnect=0;outline=none;symbol=none;gwType=parallel;" vertex="1" parent="1">
          <mxGeometry x="1520" y="2960" width="50" height="50" as="geometry" />
        </mxCell>
        <mxCell id="3urvQe0UYtxkTPocbInU-66" value="" style="points=[[0.25,0.25,0],[0.5,0,0],[0.75,0.25,0],[1,0.5,0],[0.75,0.75,0],[0.5,1,0],[0.25,0.75,0],[0,0.5,0]];shape=mxgraph.bpmn.gateway2;html=1;verticalLabelPosition=bottom;labelBackgroundColor=#ffffff;verticalAlign=top;align=center;perimeter=rhombusPerimeter;outlineConnect=0;outline=end;symbol=general;" vertex="1" parent="1">
          <mxGeometry x="1600" y="2960" width="50" height="50" as="geometry" />
        </mxCell>
        <mxCell id="3urvQe0UYtxkTPocbInU-67" value="" style="points=[[0.25,0.25,0],[0.5,0,0],[0.75,0.25,0],[1,0.5,0],[0.75,0.75,0],[0.5,1,0],[0.25,0.75,0],[0,0.5,0]];shape=mxgraph.bpmn.gateway2;html=1;verticalLabelPosition=bottom;labelBackgroundColor=#ffffff;verticalAlign=top;align=center;perimeter=rhombusPerimeter;outlineConnect=0;outline=none;symbol=none;" vertex="1" parent="1">
          <mxGeometry x="1460" y="2960" width="50" height="50" as="geometry" />
        </mxCell>
        <mxCell id="3urvQe0UYtxkTPocbInU-68" value="" style="points=[[0.25,0,0],[0.5,0,0],[0.75,0,0],[1,0.25,0],[1,0.5,0],[1,0.75,0],[0.75,1,0],[0.5,1,0],[0.25,1,0],[0,0.75,0],[0,0.5,0],[0,0.25,0]];shape=mxgraph.bpmn.task2;whiteSpace=wrap;rectStyle=rounded;size=10;html=1;container=1;expand=0;collapsible=0;taskMarker=script;" vertex="1" parent="1">
          <mxGeometry x="860" y="2760" width="120" height="80" as="geometry" />
        </mxCell>
        <mxCell id="3urvQe0UYtxkTPocbInU-69" value="" style="points=[[0.25,0,0],[0.5,0,0],[0.75,0,0],[1,0.25,0],[1,0.5,0],[1,0.75,0],[0.75,1,0],[0.5,1,0],[0.25,1,0],[0,0.75,0],[0,0.5,0],[0,0.25,0]];shape=mxgraph.bpmn.task2;whiteSpace=wrap;rectStyle=rounded;size=10;html=1;container=1;expand=0;collapsible=0;taskMarker=user;" vertex="1" parent="1">
          <mxGeometry x="1040" y="2760" width="120" height="80" as="geometry" />
        </mxCell>
        <mxCell id="3urvQe0UYtxkTPocbInU-70" value="" style="points=[[0.25,0,0],[0.5,0,0],[0.75,0,0],[1,0.25,0],[1,0.5,0],[1,0.75,0],[0.75,1,0],[0.5,1,0],[0.25,1,0],[0,0.75,0],[0,0.5,0],[0,0.25,0]];shape=mxgraph.bpmn.task2;whiteSpace=wrap;rectStyle=rounded;size=10;html=1;container=1;expand=0;collapsible=0;taskMarker=receive;" vertex="1" parent="1">
          <mxGeometry x="870" y="2885" width="120" height="80" as="geometry" />
        </mxCell>
        <mxCell id="3urvQe0UYtxkTPocbInU-71" value="" style="points=[[0.25,0,0],[0.5,0,0],[0.75,0,0],[1,0.25,0],[1,0.5,0],[1,0.75,0],[0.75,1,0],[0.5,1,0],[0.25,1,0],[0,0.75,0],[0,0.5,0],[0,0.25,0]];shape=mxgraph.bpmn.task2;whiteSpace=wrap;rectStyle=rounded;size=10;html=1;container=1;expand=0;collapsible=0;taskMarker=send;" vertex="1" parent="1">
          <mxGeometry x="1040" y="2885" width="120" height="80" as="geometry" />
        </mxCell>
        <mxCell id="3urvQe0UYtxkTPocbInU-72" value="" style="shape=datastore;html=1;labelPosition=center;verticalLabelPosition=bottom;align=center;verticalAlign=top;" vertex="1" parent="1">
          <mxGeometry x="1340" y="2900" width="50" height="50" as="geometry" />
        </mxCell>
        <mxCell id="3urvQe0UYtxkTPocbInU-25" value="Заполнить / отредактировать сведения по документу" style="points=[[0.25,0,0],[0.5,0,0],[0.75,0,0],[1,0.25,0],[1,0.5,0],[1,0.75,0],[0.75,1,0],[0.5,1,0],[0.25,1,0],[0,0.75,0],[0,0.5,0],[0,0.25,0]];shape=mxgraph.bpmn.task2;whiteSpace=wrap;rectStyle=rounded;size=10;html=1;container=1;expand=0;collapsible=0;taskMarker=abstract;isLoopComp=1;isLoopStandard=1;" vertex="1" parent="1">
          <mxGeometry x="1075" y="2560" width="135" height="100" as="geometry" />
        </mxCell>
        <mxCell id="3urvQe0UYtxkTPocbInU-28" value="Определить руководителя сотрудника" style="points=[[0.25,0,0],[0.5,0,0],[0.75,0,0],[1,0.25,0],[1,0.5,0],[1,0.75,0],[0.75,1,0],[0.5,1,0],[0.25,1,0],[0,0.75,0],[0,0.5,0],[0,0.25,0]];shape=mxgraph.bpmn.task2;whiteSpace=wrap;rectStyle=rounded;size=10;html=1;container=1;expand=0;collapsible=0;taskMarker=script;" vertex="1" parent="1">
          <mxGeometry x="920" y="2560" width="120" height="80" as="geometry" />
        </mxCell>
        <mxCell id="3urvQe0UYtxkTPocbInU-77" value="&lt;span style=&quot;font-weight: 400;&quot;&gt;Информационная система сети франчайзинговых кофеен&lt;/span&gt;" style="swimlane;horizontal=0;whiteSpace=wrap;html=1;startSize=30;" vertex="1" parent="1">
          <mxGeometry x="210" y="3070" width="1470" height="650" as="geometry" />
        </mxCell>
        <mxCell id="3urvQe0UYtxkTPocbInU-78" value="Клиент" style="swimlane;horizontal=0;whiteSpace=wrap;html=1;" vertex="1" parent="3urvQe0UYtxkTPocbInU-77">
          <mxGeometry x="30" width="1440" height="270" as="geometry" />
        </mxCell>
        <mxCell id="3urvQe0UYtxkTPocbInU-13" style="edgeStyle=orthogonalEdgeStyle;rounded=0;orthogonalLoop=1;jettySize=auto;html=1;" edge="1" parent="3urvQe0UYtxkTPocbInU-78" source="3urvQe0UYtxkTPocbInU-14">
          <mxGeometry relative="1" as="geometry">
            <mxPoint x="120.00000000000023" y="135" as="targetPoint" />
          </mxGeometry>
        </mxCell>
        <mxCell id="3urvQe0UYtxkTPocbInU-14" value="" style="points=[[0.145,0.145,0],[0.5,0,0],[0.855,0.145,0],[1,0.5,0],[0.855,0.855,0],[0.5,1,0],[0.145,0.855,0],[0,0.5,0]];shape=mxgraph.bpmn.event;html=1;verticalLabelPosition=bottom;labelBackgroundColor=#ffffff;verticalAlign=top;align=center;perimeter=ellipsePerimeter;outlineConnect=0;aspect=fixed;outline=standard;symbol=general;" vertex="1" parent="3urvQe0UYtxkTPocbInU-78">
          <mxGeometry x="40" y="110" width="50" height="50" as="geometry" />
        </mxCell>
        <mxCell id="3urvQe0UYtxkTPocbInU-74" value="" style="edgeStyle=orthogonalEdgeStyle;rounded=0;orthogonalLoop=1;jettySize=auto;html=1;" edge="1" parent="3urvQe0UYtxkTPocbInU-78" source="3urvQe0UYtxkTPocbInU-16" target="3urvQe0UYtxkTPocbInU-73">
          <mxGeometry relative="1" as="geometry" />
        </mxCell>
        <mxCell id="3urvQe0UYtxkTPocbInU-16" value="Открыть приложение" style="points=[[0.25,0,0],[0.5,0,0],[0.75,0,0],[1,0.25,0],[1,0.5,0],[1,0.75,0],[0.75,1,0],[0.5,1,0],[0.25,1,0],[0,0.75,0],[0,0.5,0],[0,0.25,0]];shape=mxgraph.bpmn.task2;whiteSpace=wrap;rectStyle=rounded;size=10;html=1;container=1;expand=0;collapsible=0;taskMarker=user;" vertex="1" parent="3urvQe0UYtxkTPocbInU-78">
          <mxGeometry x="120" y="100" width="100" height="70" as="geometry" />
        </mxCell>
        <mxCell id="3urvQe0UYtxkTPocbInU-175" style="edgeStyle=orthogonalEdgeStyle;rounded=0;orthogonalLoop=1;jettySize=auto;html=1;" edge="1" parent="3urvQe0UYtxkTPocbInU-78" source="3urvQe0UYtxkTPocbInU-73" target="3urvQe0UYtxkTPocbInU-75">
          <mxGeometry relative="1" as="geometry">
            <Array as="points">
              <mxPoint x="285" y="80" />
            </Array>
          </mxGeometry>
        </mxCell>
        <mxCell id="3urvQe0UYtxkTPocbInU-194" value="Есть аккаунт" style="edgeLabel;html=1;align=center;verticalAlign=middle;resizable=0;points=[];" vertex="1" connectable="0" parent="3urvQe0UYtxkTPocbInU-175">
          <mxGeometry x="-0.3123" y="-1" relative="1" as="geometry">
            <mxPoint as="offset" />
          </mxGeometry>
        </mxCell>
        <mxCell id="3urvQe0UYtxkTPocbInU-176" style="edgeStyle=orthogonalEdgeStyle;rounded=0;orthogonalLoop=1;jettySize=auto;html=1;" edge="1" parent="3urvQe0UYtxkTPocbInU-78" source="3urvQe0UYtxkTPocbInU-73" target="3urvQe0UYtxkTPocbInU-76">
          <mxGeometry relative="1" as="geometry">
            <Array as="points">
              <mxPoint x="285" y="190" />
            </Array>
          </mxGeometry>
        </mxCell>
        <mxCell id="3urvQe0UYtxkTPocbInU-195" value="Нет аккаунта" style="edgeLabel;html=1;align=center;verticalAlign=middle;resizable=0;points=[];" vertex="1" connectable="0" parent="3urvQe0UYtxkTPocbInU-176">
          <mxGeometry x="-0.4632" y="3" relative="1" as="geometry">
            <mxPoint as="offset" />
          </mxGeometry>
        </mxCell>
        <mxCell id="3urvQe0UYtxkTPocbInU-73" value="" style="points=[[0.25,0.25,0],[0.5,0,0],[0.75,0.25,0],[1,0.5,0],[0.75,0.75,0],[0.5,1,0],[0.25,0.75,0],[0,0.5,0]];shape=mxgraph.bpmn.gateway2;html=1;verticalLabelPosition=bottom;labelBackgroundColor=#ffffff;verticalAlign=top;align=center;perimeter=rhombusPerimeter;outlineConnect=0;outline=none;symbol=none;gwType=exclusive;" vertex="1" parent="3urvQe0UYtxkTPocbInU-78">
          <mxGeometry x="260" y="110" width="50" height="50" as="geometry" />
        </mxCell>
        <mxCell id="3urvQe0UYtxkTPocbInU-177" style="edgeStyle=orthogonalEdgeStyle;rounded=0;orthogonalLoop=1;jettySize=auto;html=1;" edge="1" parent="3urvQe0UYtxkTPocbInU-78" source="3urvQe0UYtxkTPocbInU-75" target="3urvQe0UYtxkTPocbInU-131">
          <mxGeometry relative="1" as="geometry" />
        </mxCell>
        <mxCell id="3urvQe0UYtxkTPocbInU-75" value="Войти&amp;nbsp;&lt;span style=&quot;background-color: transparent; color: light-dark(rgb(0, 0, 0), rgb(255, 255, 255));&quot;&gt;по номеру телефона&lt;/span&gt;" style="points=[[0.25,0,0],[0.5,0,0],[0.75,0,0],[1,0.25,0],[1,0.5,0],[1,0.75,0],[0.75,1,0],[0.5,1,0],[0.25,1,0],[0,0.75,0],[0,0.5,0],[0,0.25,0]];shape=mxgraph.bpmn.task2;whiteSpace=wrap;rectStyle=rounded;size=10;html=1;container=1;expand=0;collapsible=0;taskMarker=user;" vertex="1" parent="3urvQe0UYtxkTPocbInU-78">
          <mxGeometry x="350" y="45" width="130" height="70" as="geometry" />
        </mxCell>
        <mxCell id="3urvQe0UYtxkTPocbInU-178" style="edgeStyle=orthogonalEdgeStyle;rounded=0;orthogonalLoop=1;jettySize=auto;html=1;" edge="1" parent="3urvQe0UYtxkTPocbInU-78" source="3urvQe0UYtxkTPocbInU-76" target="3urvQe0UYtxkTPocbInU-131">
          <mxGeometry relative="1" as="geometry" />
        </mxCell>
        <mxCell id="3urvQe0UYtxkTPocbInU-76" value="Зарегистрироваться" style="points=[[0.25,0,0],[0.5,0,0],[0.75,0,0],[1,0.25,0],[1,0.5,0],[1,0.75,0],[0.75,1,0],[0.5,1,0],[0.25,1,0],[0,0.75,0],[0,0.5,0],[0,0.25,0]];shape=mxgraph.bpmn.task2;whiteSpace=wrap;rectStyle=rounded;size=10;html=1;container=1;expand=0;collapsible=0;taskMarker=user;" vertex="1" parent="3urvQe0UYtxkTPocbInU-78">
          <mxGeometry x="350" y="155" width="130" height="70" as="geometry" />
        </mxCell>
        <mxCell id="3urvQe0UYtxkTPocbInU-181" style="edgeStyle=orthogonalEdgeStyle;rounded=0;orthogonalLoop=1;jettySize=auto;html=1;" edge="1" parent="3urvQe0UYtxkTPocbInU-78" source="3urvQe0UYtxkTPocbInU-131" target="3urvQe0UYtxkTPocbInU-132">
          <mxGeometry relative="1" as="geometry" />
        </mxCell>
        <mxCell id="3urvQe0UYtxkTPocbInU-131" value="Просмотр меню и формирование корзины" style="points=[[0.25,0,0],[0.5,0,0],[0.75,0,0],[1,0.25,0],[1,0.5,0],[1,0.75,0],[0.75,1,0],[0.5,1,0],[0.25,1,0],[0,0.75,0],[0,0.5,0],[0,0.25,0]];shape=mxgraph.bpmn.task2;whiteSpace=wrap;rectStyle=rounded;size=10;html=1;container=1;expand=0;collapsible=0;taskMarker=user;" vertex="1" parent="3urvQe0UYtxkTPocbInU-78">
          <mxGeometry x="520" y="90" width="130" height="90" as="geometry" />
        </mxCell>
        <mxCell id="3urvQe0UYtxkTPocbInU-182" style="edgeStyle=orthogonalEdgeStyle;rounded=0;orthogonalLoop=1;jettySize=auto;html=1;" edge="1" parent="3urvQe0UYtxkTPocbInU-78" source="3urvQe0UYtxkTPocbInU-132" target="3urvQe0UYtxkTPocbInU-149">
          <mxGeometry relative="1" as="geometry" />
        </mxCell>
        <mxCell id="3urvQe0UYtxkTPocbInU-132" value="Выбор кофейни" style="points=[[0.25,0,0],[0.5,0,0],[0.75,0,0],[1,0.25,0],[1,0.5,0],[1,0.75,0],[0.75,1,0],[0.5,1,0],[0.25,1,0],[0,0.75,0],[0,0.5,0],[0,0.25,0]];shape=mxgraph.bpmn.task2;whiteSpace=wrap;rectStyle=rounded;size=10;html=1;container=1;expand=0;collapsible=0;taskMarker=user;" vertex="1" parent="3urvQe0UYtxkTPocbInU-78">
          <mxGeometry x="680" y="110" width="130" height="50" as="geometry" />
        </mxCell>
        <mxCell id="3urvQe0UYtxkTPocbInU-183" style="edgeStyle=orthogonalEdgeStyle;rounded=0;orthogonalLoop=1;jettySize=auto;html=1;" edge="1" parent="3urvQe0UYtxkTPocbInU-78" source="3urvQe0UYtxkTPocbInU-149" target="3urvQe0UYtxkTPocbInU-150">
          <mxGeometry relative="1" as="geometry">
            <Array as="points">
              <mxPoint x="865" y="75" />
            </Array>
          </mxGeometry>
        </mxCell>
        <mxCell id="3urvQe0UYtxkTPocbInU-196" value="Списывать баллы" style="edgeLabel;html=1;align=center;verticalAlign=middle;resizable=0;points=[];" vertex="1" connectable="0" parent="3urvQe0UYtxkTPocbInU-183">
          <mxGeometry x="-0.1" relative="1" as="geometry">
            <mxPoint x="-22" y="-12" as="offset" />
          </mxGeometry>
        </mxCell>
        <mxCell id="3urvQe0UYtxkTPocbInU-184" style="edgeStyle=orthogonalEdgeStyle;rounded=0;orthogonalLoop=1;jettySize=auto;html=1;" edge="1" parent="3urvQe0UYtxkTPocbInU-78" source="3urvQe0UYtxkTPocbInU-149" target="3urvQe0UYtxkTPocbInU-140">
          <mxGeometry relative="1" as="geometry">
            <mxPoint x="1070" y="210" as="targetPoint" />
            <Array as="points">
              <mxPoint x="865" y="190" />
              <mxPoint x="1240" y="190" />
              <mxPoint x="1240" y="135" />
            </Array>
          </mxGeometry>
        </mxCell>
        <mxCell id="3urvQe0UYtxkTPocbInU-197" value="Не списывать баллы" style="edgeLabel;html=1;align=center;verticalAlign=middle;resizable=0;points=[];" vertex="1" connectable="0" parent="3urvQe0UYtxkTPocbInU-184">
          <mxGeometry x="-0.8535" relative="1" as="geometry">
            <mxPoint as="offset" />
          </mxGeometry>
        </mxCell>
        <mxCell id="3urvQe0UYtxkTPocbInU-149" value="" style="points=[[0.25,0.25,0],[0.5,0,0],[0.75,0.25,0],[1,0.5,0],[0.75,0.75,0],[0.5,1,0],[0.25,0.75,0],[0,0.5,0]];shape=mxgraph.bpmn.gateway2;html=1;verticalLabelPosition=bottom;labelBackgroundColor=#ffffff;verticalAlign=top;align=center;perimeter=rhombusPerimeter;outlineConnect=0;outline=none;symbol=none;gwType=exclusive;" vertex="1" parent="3urvQe0UYtxkTPocbInU-78">
          <mxGeometry x="840" y="110" width="50" height="50" as="geometry" />
        </mxCell>
        <mxCell id="3urvQe0UYtxkTPocbInU-185" style="edgeStyle=orthogonalEdgeStyle;rounded=0;orthogonalLoop=1;jettySize=auto;html=1;" edge="1" parent="3urvQe0UYtxkTPocbInU-78" source="3urvQe0UYtxkTPocbInU-150" target="3urvQe0UYtxkTPocbInU-151">
          <mxGeometry relative="1" as="geometry" />
        </mxCell>
        <mxCell id="3urvQe0UYtxkTPocbInU-150" value="Проверка наличия баллов" style="points=[[0.25,0,0],[0.5,0,0],[0.75,0,0],[1,0.25,0],[1,0.5,0],[1,0.75,0],[0.75,1,0],[0.5,1,0],[0.25,1,0],[0,0.75,0],[0,0.5,0],[0,0.25,0]];shape=mxgraph.bpmn.task2;whiteSpace=wrap;rectStyle=rounded;size=10;html=1;container=1;expand=0;collapsible=0;taskMarker=script;" vertex="1" parent="3urvQe0UYtxkTPocbInU-78">
          <mxGeometry x="910" y="40" width="100" height="70" as="geometry" />
        </mxCell>
        <mxCell id="3urvQe0UYtxkTPocbInU-186" style="edgeStyle=orthogonalEdgeStyle;rounded=0;orthogonalLoop=1;jettySize=auto;html=1;" edge="1" parent="3urvQe0UYtxkTPocbInU-78" source="3urvQe0UYtxkTPocbInU-151" target="3urvQe0UYtxkTPocbInU-152">
          <mxGeometry relative="1" as="geometry">
            <Array as="points">
              <mxPoint x="1065" y="30" />
            </Array>
          </mxGeometry>
        </mxCell>
        <mxCell id="3urvQe0UYtxkTPocbInU-198" value="Баллов достаточно" style="edgeLabel;html=1;align=center;verticalAlign=middle;resizable=0;points=[];" vertex="1" connectable="0" parent="3urvQe0UYtxkTPocbInU-186">
          <mxGeometry x="-0.5294" y="4" relative="1" as="geometry">
            <mxPoint x="-2" y="1" as="offset" />
          </mxGeometry>
        </mxCell>
        <mxCell id="3urvQe0UYtxkTPocbInU-187" style="edgeStyle=orthogonalEdgeStyle;rounded=0;orthogonalLoop=1;jettySize=auto;html=1;" edge="1" parent="3urvQe0UYtxkTPocbInU-78" source="3urvQe0UYtxkTPocbInU-151" target="3urvQe0UYtxkTPocbInU-140">
          <mxGeometry relative="1" as="geometry">
            <Array as="points">
              <mxPoint x="1065" y="135" />
            </Array>
          </mxGeometry>
        </mxCell>
        <mxCell id="3urvQe0UYtxkTPocbInU-199" value="Баллов недостаточно" style="edgeLabel;html=1;align=center;verticalAlign=middle;resizable=0;points=[];" vertex="1" connectable="0" parent="3urvQe0UYtxkTPocbInU-187">
          <mxGeometry x="-0.6942" y="-1" relative="1" as="geometry">
            <mxPoint as="offset" />
          </mxGeometry>
        </mxCell>
        <mxCell id="3urvQe0UYtxkTPocbInU-151" value="" style="points=[[0.25,0.25,0],[0.5,0,0],[0.75,0.25,0],[1,0.5,0],[0.75,0.75,0],[0.5,1,0],[0.25,0.75,0],[0,0.5,0]];shape=mxgraph.bpmn.gateway2;html=1;verticalLabelPosition=bottom;labelBackgroundColor=#ffffff;verticalAlign=top;align=center;perimeter=rhombusPerimeter;outlineConnect=0;outline=none;symbol=none;gwType=exclusive;" vertex="1" parent="3urvQe0UYtxkTPocbInU-78">
          <mxGeometry x="1040" y="50" width="50" height="50" as="geometry" />
        </mxCell>
        <mxCell id="3urvQe0UYtxkTPocbInU-140" value="Оплата заказа" style="points=[[0.25,0,0],[0.5,0,0],[0.75,0,0],[1,0.25,0],[1,0.5,0],[1,0.75,0],[0.75,1,0],[0.5,1,0],[0.25,1,0],[0,0.75,0],[0,0.5,0],[0,0.25,0]];shape=mxgraph.bpmn.task2;whiteSpace=wrap;rectStyle=rounded;size=10;html=1;container=1;expand=0;collapsible=0;taskMarker=user;" vertex="1" parent="3urvQe0UYtxkTPocbInU-78">
          <mxGeometry x="1260" y="110" width="130" height="50" as="geometry" />
        </mxCell>
        <mxCell id="3urvQe0UYtxkTPocbInU-188" style="edgeStyle=orthogonalEdgeStyle;rounded=0;orthogonalLoop=1;jettySize=auto;html=1;" edge="1" parent="3urvQe0UYtxkTPocbInU-78" source="3urvQe0UYtxkTPocbInU-152" target="3urvQe0UYtxkTPocbInU-140">
          <mxGeometry relative="1" as="geometry">
            <Array as="points">
              <mxPoint x="1240" y="45" />
              <mxPoint x="1240" y="135" />
            </Array>
          </mxGeometry>
        </mxCell>
        <mxCell id="3urvQe0UYtxkTPocbInU-152" value="Применение баллов" style="points=[[0.25,0,0],[0.5,0,0],[0.75,0,0],[1,0.25,0],[1,0.5,0],[1,0.75,0],[0.75,1,0],[0.5,1,0],[0.25,1,0],[0,0.75,0],[0,0.5,0],[0,0.25,0]];shape=mxgraph.bpmn.task2;whiteSpace=wrap;rectStyle=rounded;size=10;html=1;container=1;expand=0;collapsible=0;taskMarker=script;" vertex="1" parent="3urvQe0UYtxkTPocbInU-78">
          <mxGeometry x="1130" y="10" width="100" height="70" as="geometry" />
        </mxCell>
        <mxCell id="3urvQe0UYtxkTPocbInU-93" value="Система" style="swimlane;horizontal=0;whiteSpace=wrap;html=1;" vertex="1" parent="3urvQe0UYtxkTPocbInU-77">
          <mxGeometry x="30" y="270" width="1440" height="240" as="geometry" />
        </mxCell>
        <mxCell id="3urvQe0UYtxkTPocbInU-130" value="" style="shape=datastore;html=1;labelPosition=center;verticalLabelPosition=bottom;align=center;verticalAlign=top;" vertex="1" parent="3urvQe0UYtxkTPocbInU-93">
          <mxGeometry x="560" y="45" width="50" height="50" as="geometry" />
        </mxCell>
        <mxCell id="3urvQe0UYtxkTPocbInU-134" value="" style="shape=datastore;html=1;labelPosition=center;verticalLabelPosition=bottom;align=center;verticalAlign=top;" vertex="1" parent="3urvQe0UYtxkTPocbInU-93">
          <mxGeometry x="720" y="45" width="50" height="50" as="geometry" />
        </mxCell>
        <mxCell id="3urvQe0UYtxkTPocbInU-144" value="" style="shape=datastore;html=1;labelPosition=center;verticalLabelPosition=bottom;align=center;verticalAlign=top;" vertex="1" parent="3urvQe0UYtxkTPocbInU-93">
          <mxGeometry x="390" y="45" width="50" height="50" as="geometry" />
        </mxCell>
        <mxCell id="3urvQe0UYtxkTPocbInU-153" value="" style="shape=datastore;html=1;labelPosition=center;verticalLabelPosition=bottom;align=center;verticalAlign=top;" vertex="1" parent="3urvQe0UYtxkTPocbInU-93">
          <mxGeometry x="935" y="45" width="50" height="50" as="geometry" />
        </mxCell>
        <mxCell id="3urvQe0UYtxkTPocbInU-156" value="" style="shape=datastore;html=1;labelPosition=center;verticalLabelPosition=bottom;align=center;verticalAlign=top;" vertex="1" parent="3urvQe0UYtxkTPocbInU-93">
          <mxGeometry x="1080" y="45" width="50" height="50" as="geometry" />
        </mxCell>
        <mxCell id="3urvQe0UYtxkTPocbInU-159" value="Начисление бонусов" style="points=[[0.25,0,0],[0.5,0,0],[0.75,0,0],[1,0.25,0],[1,0.5,0],[1,0.75,0],[0.75,1,0],[0.5,1,0],[0.25,1,0],[0,0.75,0],[0,0.5,0],[0,0.25,0]];shape=mxgraph.bpmn.task2;whiteSpace=wrap;rectStyle=rounded;size=10;html=1;container=1;expand=0;collapsible=0;taskMarker=script;" vertex="1" parent="3urvQe0UYtxkTPocbInU-93">
          <mxGeometry x="1200" y="40" width="100" height="70" as="geometry" />
        </mxCell>
        <mxCell id="3urvQe0UYtxkTPocbInU-160" value="" style="endArrow=classic;dashed=1;html=1;rounded=0;endFill=1;entryX=0.5;entryY=1;entryDx=0;entryDy=0;exitX=0.5;exitY=1;exitDx=0;exitDy=0;exitPerimeter=0;" edge="1" parent="3urvQe0UYtxkTPocbInU-93" source="3urvQe0UYtxkTPocbInU-159" target="3urvQe0UYtxkTPocbInU-156">
          <mxGeometry width="50" height="50" relative="1" as="geometry">
            <mxPoint x="1360" y="100" as="sourcePoint" />
            <mxPoint x="1360" y="255" as="targetPoint" />
            <Array as="points">
              <mxPoint x="1250" y="120" />
              <mxPoint x="1105" y="120" />
            </Array>
          </mxGeometry>
        </mxCell>
        <mxCell id="3urvQe0UYtxkTPocbInU-161" value="Транзакция бонусов" style="edgeLabel;html=1;align=center;verticalAlign=middle;resizable=0;points=[];" vertex="1" connectable="0" parent="3urvQe0UYtxkTPocbInU-160">
          <mxGeometry x="0.0085" y="4" relative="1" as="geometry">
            <mxPoint x="6" y="-4" as="offset" />
          </mxGeometry>
        </mxCell>
        <mxCell id="3urvQe0UYtxkTPocbInU-162" value="Уведомить сотрудника точки" style="points=[[0.25,0,0],[0.5,0,0],[0.75,0,0],[1,0.25,0],[1,0.5,0],[1,0.75,0],[0.75,1,0],[0.5,1,0],[0.25,1,0],[0,0.75,0],[0,0.5,0],[0,0.25,0]];shape=mxgraph.bpmn.task2;whiteSpace=wrap;rectStyle=rounded;size=10;html=1;container=1;expand=0;collapsible=0;taskMarker=script;" vertex="1" parent="3urvQe0UYtxkTPocbInU-93">
          <mxGeometry x="1185" y="140" width="130" height="70" as="geometry" />
        </mxCell>
        <mxCell id="3urvQe0UYtxkTPocbInU-168" value="" style="shape=datastore;html=1;labelPosition=center;verticalLabelPosition=bottom;align=center;verticalAlign=top;" vertex="1" parent="3urvQe0UYtxkTPocbInU-93">
          <mxGeometry x="720" y="140" width="50" height="50" as="geometry" />
        </mxCell>
        <mxCell id="3urvQe0UYtxkTPocbInU-190" style="edgeStyle=orthogonalEdgeStyle;rounded=0;orthogonalLoop=1;jettySize=auto;html=1;" edge="1" parent="3urvQe0UYtxkTPocbInU-93" source="3urvQe0UYtxkTPocbInU-171" target="3urvQe0UYtxkTPocbInU-159">
          <mxGeometry relative="1" as="geometry">
            <Array as="points">
              <mxPoint x="1375" y="75" />
            </Array>
          </mxGeometry>
        </mxCell>
        <mxCell id="3urvQe0UYtxkTPocbInU-191" style="edgeStyle=orthogonalEdgeStyle;rounded=0;orthogonalLoop=1;jettySize=auto;html=1;" edge="1" parent="3urvQe0UYtxkTPocbInU-93" source="3urvQe0UYtxkTPocbInU-171" target="3urvQe0UYtxkTPocbInU-162">
          <mxGeometry relative="1" as="geometry">
            <Array as="points">
              <mxPoint x="1375" y="175" />
            </Array>
          </mxGeometry>
        </mxCell>
        <mxCell id="3urvQe0UYtxkTPocbInU-171" value="" style="points=[[0.25,0.25,0],[0.5,0,0],[0.75,0.25,0],[1,0.5,0],[0.75,0.75,0],[0.5,1,0],[0.25,0.75,0],[0,0.5,0]];shape=mxgraph.bpmn.gateway2;html=1;verticalLabelPosition=bottom;labelBackgroundColor=#ffffff;verticalAlign=top;align=center;perimeter=rhombusPerimeter;outlineConnect=0;outline=none;symbol=none;gwType=parallel;" vertex="1" parent="3urvQe0UYtxkTPocbInU-93">
          <mxGeometry x="1350" y="95" width="50" height="50" as="geometry" />
        </mxCell>
        <mxCell id="3urvQe0UYtxkTPocbInU-101" value="Бариста" style="swimlane;horizontal=0;whiteSpace=wrap;html=1;" vertex="1" parent="3urvQe0UYtxkTPocbInU-77">
          <mxGeometry x="30" y="510" width="1440" height="140" as="geometry" />
        </mxCell>
        <mxCell id="3urvQe0UYtxkTPocbInU-163" value="" style="points=[[0.145,0.145,0],[0.5,0,0],[0.855,0.145,0],[1,0.5,0],[0.855,0.855,0],[0.5,1,0],[0.145,0.855,0],[0,0.5,0]];shape=mxgraph.bpmn.event;html=1;verticalLabelPosition=bottom;labelBackgroundColor=#ffffff;verticalAlign=top;align=center;perimeter=ellipsePerimeter;outlineConnect=0;aspect=fixed;outline=end;symbol=terminate2;" vertex="1" parent="3urvQe0UYtxkTPocbInU-101">
          <mxGeometry x="1360" y="45" width="50" height="50" as="geometry" />
        </mxCell>
        <mxCell id="3urvQe0UYtxkTPocbInU-193" style="edgeStyle=orthogonalEdgeStyle;rounded=0;orthogonalLoop=1;jettySize=auto;html=1;" edge="1" parent="3urvQe0UYtxkTPocbInU-101" source="3urvQe0UYtxkTPocbInU-165" target="3urvQe0UYtxkTPocbInU-163">
          <mxGeometry relative="1" as="geometry" />
        </mxCell>
        <mxCell id="3urvQe0UYtxkTPocbInU-165" value="Подтверждение заказа" style="points=[[0.25,0,0],[0.5,0,0],[0.75,0,0],[1,0.25,0],[1,0.5,0],[1,0.75,0],[0.75,1,0],[0.5,1,0],[0.25,1,0],[0,0.75,0],[0,0.5,0],[0,0.25,0]];shape=mxgraph.bpmn.task2;whiteSpace=wrap;rectStyle=rounded;size=10;html=1;container=1;expand=0;collapsible=0;taskMarker=user;" vertex="1" parent="3urvQe0UYtxkTPocbInU-101">
          <mxGeometry x="895" y="32.5" width="130" height="75" as="geometry" />
        </mxCell>
        <mxCell id="3urvQe0UYtxkTPocbInU-133" value="" style="endArrow=classic;dashed=1;html=1;rounded=0;exitX=0.5;exitY=0;exitDx=0;exitDy=0;endFill=1;" edge="1" parent="3urvQe0UYtxkTPocbInU-77" source="3urvQe0UYtxkTPocbInU-130" target="3urvQe0UYtxkTPocbInU-131">
          <mxGeometry width="50" height="50" relative="1" as="geometry">
            <mxPoint x="440" y="320" as="sourcePoint" />
            <mxPoint x="510" y="350" as="targetPoint" />
          </mxGeometry>
        </mxCell>
        <mxCell id="3urvQe0UYtxkTPocbInU-142" value="Актуальное меню" style="edgeLabel;html=1;align=center;verticalAlign=middle;resizable=0;points=[];" vertex="1" connectable="0" parent="3urvQe0UYtxkTPocbInU-133">
          <mxGeometry x="0.0799" y="3" relative="1" as="geometry">
            <mxPoint as="offset" />
          </mxGeometry>
        </mxCell>
        <mxCell id="3urvQe0UYtxkTPocbInU-135" value="" style="endArrow=classic;dashed=1;html=1;rounded=0;exitX=0.5;exitY=0;exitDx=0;exitDy=0;endFill=1;" edge="1" parent="3urvQe0UYtxkTPocbInU-77" source="3urvQe0UYtxkTPocbInU-134" target="3urvQe0UYtxkTPocbInU-132">
          <mxGeometry width="50" height="50" relative="1" as="geometry">
            <mxPoint x="600" y="320" as="sourcePoint" />
            <mxPoint x="775" y="180" as="targetPoint" />
          </mxGeometry>
        </mxCell>
        <mxCell id="3urvQe0UYtxkTPocbInU-143" value="Открытые точки" style="edgeLabel;html=1;align=center;verticalAlign=middle;resizable=0;points=[];" vertex="1" connectable="0" parent="3urvQe0UYtxkTPocbInU-135">
          <mxGeometry x="0.0085" y="4" relative="1" as="geometry">
            <mxPoint as="offset" />
          </mxGeometry>
        </mxCell>
        <mxCell id="3urvQe0UYtxkTPocbInU-145" value="" style="endArrow=none;dashed=1;html=1;rounded=0;exitX=0.5;exitY=0;exitDx=0;exitDy=0;endFill=0;startArrow=classic;startFill=1;" edge="1" parent="3urvQe0UYtxkTPocbInU-77" source="3urvQe0UYtxkTPocbInU-144" target="3urvQe0UYtxkTPocbInU-76">
          <mxGeometry width="50" height="50" relative="1" as="geometry">
            <mxPoint x="510" y="395" as="sourcePoint" />
            <mxPoint x="510" y="240" as="targetPoint" />
          </mxGeometry>
        </mxCell>
        <mxCell id="3urvQe0UYtxkTPocbInU-146" value="Новый клиент" style="edgeLabel;html=1;align=center;verticalAlign=middle;resizable=0;points=[];" vertex="1" connectable="0" parent="3urvQe0UYtxkTPocbInU-145">
          <mxGeometry x="0.0085" y="4" relative="1" as="geometry">
            <mxPoint x="4" y="20" as="offset" />
          </mxGeometry>
        </mxCell>
        <mxCell id="3urvQe0UYtxkTPocbInU-147" value="" style="endArrow=none;dashed=1;html=1;rounded=0;exitX=1;exitY=0.5;exitDx=0;exitDy=0;endFill=0;entryX=1;entryY=0.5;entryDx=0;entryDy=0;entryPerimeter=0;" edge="1" parent="3urvQe0UYtxkTPocbInU-77" source="3urvQe0UYtxkTPocbInU-144" target="3urvQe0UYtxkTPocbInU-75">
          <mxGeometry width="50" height="50" relative="1" as="geometry">
            <mxPoint x="520" y="445" as="sourcePoint" />
            <mxPoint x="520" y="310" as="targetPoint" />
            <Array as="points">
              <mxPoint x="520" y="340" />
              <mxPoint x="520" y="80" />
            </Array>
          </mxGeometry>
        </mxCell>
        <mxCell id="3urvQe0UYtxkTPocbInU-148" value="Данные для входа" style="edgeLabel;html=1;align=center;verticalAlign=middle;resizable=0;points=[];" vertex="1" connectable="0" parent="3urvQe0UYtxkTPocbInU-147">
          <mxGeometry x="0.0799" y="3" relative="1" as="geometry">
            <mxPoint y="93" as="offset" />
          </mxGeometry>
        </mxCell>
        <mxCell id="3urvQe0UYtxkTPocbInU-154" value="" style="endArrow=classic;dashed=1;html=1;rounded=0;exitX=0.5;exitY=0;exitDx=0;exitDy=0;endFill=1;" edge="1" parent="3urvQe0UYtxkTPocbInU-77" source="3urvQe0UYtxkTPocbInU-153" target="3urvQe0UYtxkTPocbInU-150">
          <mxGeometry width="50" height="50" relative="1" as="geometry">
            <mxPoint x="1010" y="355" as="sourcePoint" />
            <mxPoint x="1010" y="200" as="targetPoint" />
          </mxGeometry>
        </mxCell>
        <mxCell id="3urvQe0UYtxkTPocbInU-155" value="Баланс бонусов" style="edgeLabel;html=1;align=center;verticalAlign=middle;resizable=0;points=[];" vertex="1" connectable="0" parent="3urvQe0UYtxkTPocbInU-154">
          <mxGeometry x="0.0085" y="4" relative="1" as="geometry">
            <mxPoint y="29" as="offset" />
          </mxGeometry>
        </mxCell>
        <mxCell id="3urvQe0UYtxkTPocbInU-157" value="" style="endArrow=classic;dashed=1;html=1;rounded=0;endFill=1;entryX=0.5;entryY=0;entryDx=0;entryDy=0;" edge="1" parent="3urvQe0UYtxkTPocbInU-77" source="3urvQe0UYtxkTPocbInU-140" target="3urvQe0UYtxkTPocbInU-156">
          <mxGeometry width="50" height="50" relative="1" as="geometry">
            <mxPoint x="1320" y="405" as="sourcePoint" />
            <mxPoint x="1320" y="200" as="targetPoint" />
            <Array as="points">
              <mxPoint x="1355" y="230" />
              <mxPoint x="1135" y="230" />
            </Array>
          </mxGeometry>
        </mxCell>
        <mxCell id="3urvQe0UYtxkTPocbInU-158" value="Новый заказ" style="edgeLabel;html=1;align=center;verticalAlign=middle;resizable=0;points=[];" vertex="1" connectable="0" parent="3urvQe0UYtxkTPocbInU-157">
          <mxGeometry x="0.0085" y="4" relative="1" as="geometry">
            <mxPoint x="-4" y="-13" as="offset" />
          </mxGeometry>
        </mxCell>
        <mxCell id="3urvQe0UYtxkTPocbInU-169" value="" style="endArrow=classic;dashed=1;html=1;rounded=0;endFill=1;entryX=0.5;entryY=1;entryDx=0;entryDy=0;exitX=0;exitY=0.75;exitDx=0;exitDy=0;exitPerimeter=0;" edge="1" parent="3urvQe0UYtxkTPocbInU-77" source="3urvQe0UYtxkTPocbInU-165" target="3urvQe0UYtxkTPocbInU-168">
          <mxGeometry width="50" height="50" relative="1" as="geometry">
            <mxPoint x="970" y="705" as="sourcePoint" />
            <mxPoint x="970" y="500" as="targetPoint" />
            <Array as="points">
              <mxPoint x="775" y="599" />
            </Array>
          </mxGeometry>
        </mxCell>
        <mxCell id="3urvQe0UYtxkTPocbInU-170" value="Обновление статуса&lt;div&gt;заказа&lt;/div&gt;" style="edgeLabel;html=1;align=center;verticalAlign=middle;resizable=0;points=[];" vertex="1" connectable="0" parent="3urvQe0UYtxkTPocbInU-169">
          <mxGeometry x="0.0085" y="4" relative="1" as="geometry">
            <mxPoint x="4" y="-11" as="offset" />
          </mxGeometry>
        </mxCell>
        <mxCell id="3urvQe0UYtxkTPocbInU-189" style="edgeStyle=orthogonalEdgeStyle;rounded=0;orthogonalLoop=1;jettySize=auto;html=1;" edge="1" parent="3urvQe0UYtxkTPocbInU-77" source="3urvQe0UYtxkTPocbInU-140" target="3urvQe0UYtxkTPocbInU-171">
          <mxGeometry relative="1" as="geometry">
            <Array as="points">
              <mxPoint x="1450" y="135" />
              <mxPoint x="1450" y="390" />
            </Array>
          </mxGeometry>
        </mxCell>
        <mxCell id="3urvQe0UYtxkTPocbInU-192" style="edgeStyle=orthogonalEdgeStyle;rounded=0;orthogonalLoop=1;jettySize=auto;html=1;entryX=0;entryY=0.5;entryDx=0;entryDy=0;entryPerimeter=0;" edge="1" parent="3urvQe0UYtxkTPocbInU-77" source="3urvQe0UYtxkTPocbInU-162" target="3urvQe0UYtxkTPocbInU-165">
          <mxGeometry relative="1" as="geometry" />
        </mxCell>
        <mxCell id="3urvQe0UYtxkTPocbInU-200" value="" style="endArrow=classic;dashed=1;html=1;rounded=0;exitX=0;exitY=0.5;exitDx=0;exitDy=0;endFill=1;entryX=0.5;entryY=0;entryDx=0;entryDy=0;entryPerimeter=0;" edge="1" parent="3urvQe0UYtxkTPocbInU-77" source="3urvQe0UYtxkTPocbInU-156" target="3urvQe0UYtxkTPocbInU-165">
          <mxGeometry width="50" height="50" relative="1" as="geometry">
            <mxPoint x="1070" y="585" as="sourcePoint" />
            <mxPoint x="1070" y="380" as="targetPoint" />
            <Array as="points">
              <mxPoint x="1070" y="340" />
              <mxPoint x="1070" y="410" />
              <mxPoint x="990" y="410" />
            </Array>
          </mxGeometry>
        </mxCell>
        <mxCell id="3urvQe0UYtxkTPocbInU-201" value="Информация о заказе" style="edgeLabel;html=1;align=center;verticalAlign=middle;resizable=0;points=[];" vertex="1" connectable="0" parent="3urvQe0UYtxkTPocbInU-200">
          <mxGeometry x="0.0085" y="4" relative="1" as="geometry">
            <mxPoint x="-27" y="16" as="offset" />
          </mxGeometry>
        </mxCell>
        <mxCell id="3urvQe0UYtxkTPocbInU-202" value="&lt;span style=&quot;font-weight: 400;&quot;&gt;Информационная система сети франчайзинговых кофеен&lt;/span&gt;" style="swimlane;horizontal=0;whiteSpace=wrap;html=1;startSize=30;" vertex="1" parent="1">
          <mxGeometry x="2150" y="3080" width="1360" height="420" as="geometry" />
        </mxCell>
        <mxCell id="3urvQe0UYtxkTPocbInU-203" value="Бариста" style="swimlane;horizontal=0;whiteSpace=wrap;html=1;" vertex="1" parent="3urvQe0UYtxkTPocbInU-202">
          <mxGeometry x="30" width="1330" height="270" as="geometry" />
        </mxCell>
        <mxCell id="3urvQe0UYtxkTPocbInU-301" style="edgeStyle=orthogonalEdgeStyle;rounded=0;orthogonalLoop=1;jettySize=auto;html=1;" edge="1" parent="3urvQe0UYtxkTPocbInU-203" source="3urvQe0UYtxkTPocbInU-272" target="3urvQe0UYtxkTPocbInU-276">
          <mxGeometry relative="1" as="geometry" />
        </mxCell>
        <mxCell id="3urvQe0UYtxkTPocbInU-272" value="" style="points=[[0.145,0.145,0],[0.5,0,0],[0.855,0.145,0],[1,0.5,0],[0.855,0.855,0],[0.5,1,0],[0.145,0.855,0],[0,0.5,0]];shape=mxgraph.bpmn.event;html=1;verticalLabelPosition=bottom;labelBackgroundColor=#ffffff;verticalAlign=top;align=center;perimeter=ellipsePerimeter;outlineConnect=0;aspect=fixed;outline=standard;symbol=general;" vertex="1" parent="3urvQe0UYtxkTPocbInU-203">
          <mxGeometry x="50" y="110" width="50" height="50" as="geometry" />
        </mxCell>
        <mxCell id="3urvQe0UYtxkTPocbInU-306" style="edgeStyle=orthogonalEdgeStyle;rounded=0;orthogonalLoop=1;jettySize=auto;html=1;" edge="1" parent="3urvQe0UYtxkTPocbInU-203" source="3urvQe0UYtxkTPocbInU-273" target="3urvQe0UYtxkTPocbInU-281">
          <mxGeometry relative="1" as="geometry">
            <Array as="points">
              <mxPoint x="610" y="75" />
              <mxPoint x="610" y="135" />
            </Array>
          </mxGeometry>
        </mxCell>
        <mxCell id="3urvQe0UYtxkTPocbInU-273" value="Отсканировать QR-код клиента" style="points=[[0.25,0,0],[0.5,0,0],[0.75,0,0],[1,0.25,0],[1,0.5,0],[1,0.75,0],[0.75,1,0],[0.5,1,0],[0.25,1,0],[0,0.75,0],[0,0.5,0],[0,0.25,0]];shape=mxgraph.bpmn.task2;whiteSpace=wrap;rectStyle=rounded;size=10;html=1;container=1;expand=0;collapsible=0;taskMarker=user;" vertex="1" parent="3urvQe0UYtxkTPocbInU-203">
          <mxGeometry x="480" y="40" width="100" height="70" as="geometry" />
        </mxCell>
        <mxCell id="3urvQe0UYtxkTPocbInU-304" style="edgeStyle=orthogonalEdgeStyle;rounded=0;orthogonalLoop=1;jettySize=auto;html=1;" edge="1" parent="3urvQe0UYtxkTPocbInU-203" source="3urvQe0UYtxkTPocbInU-274" target="3urvQe0UYtxkTPocbInU-273">
          <mxGeometry relative="1" as="geometry">
            <Array as="points">
              <mxPoint x="425" y="75" />
            </Array>
          </mxGeometry>
        </mxCell>
        <mxCell id="3urvQe0UYtxkTPocbInU-308" value="Клиент зарегистрирован" style="edgeLabel;html=1;align=center;verticalAlign=middle;resizable=0;points=[];" vertex="1" connectable="0" parent="3urvQe0UYtxkTPocbInU-304">
          <mxGeometry x="-0.1907" relative="1" as="geometry">
            <mxPoint x="-17" y="-10" as="offset" />
          </mxGeometry>
        </mxCell>
        <mxCell id="3urvQe0UYtxkTPocbInU-305" style="edgeStyle=orthogonalEdgeStyle;rounded=0;orthogonalLoop=1;jettySize=auto;html=1;" edge="1" parent="3urvQe0UYtxkTPocbInU-203" source="3urvQe0UYtxkTPocbInU-274" target="3urvQe0UYtxkTPocbInU-289">
          <mxGeometry relative="1" as="geometry">
            <Array as="points">
              <mxPoint x="425" y="210" />
              <mxPoint x="1070" y="210" />
              <mxPoint x="1070" y="135" />
            </Array>
          </mxGeometry>
        </mxCell>
        <mxCell id="3urvQe0UYtxkTPocbInU-309" value="Клиент не зарегистрирован" style="edgeLabel;html=1;align=center;verticalAlign=middle;resizable=0;points=[];" vertex="1" connectable="0" parent="3urvQe0UYtxkTPocbInU-305">
          <mxGeometry x="-0.8734" y="-1" relative="1" as="geometry">
            <mxPoint x="-1" as="offset" />
          </mxGeometry>
        </mxCell>
        <mxCell id="3urvQe0UYtxkTPocbInU-274" value="" style="points=[[0.25,0.25,0],[0.5,0,0],[0.75,0.25,0],[1,0.5,0],[0.75,0.75,0],[0.5,1,0],[0.25,0.75,0],[0,0.5,0]];shape=mxgraph.bpmn.gateway2;html=1;verticalLabelPosition=bottom;labelBackgroundColor=#ffffff;verticalAlign=top;align=center;perimeter=rhombusPerimeter;outlineConnect=0;outline=none;symbol=none;gwType=exclusive;" vertex="1" parent="3urvQe0UYtxkTPocbInU-203">
          <mxGeometry x="400" y="110" width="50" height="50" as="geometry" />
        </mxCell>
        <mxCell id="3urvQe0UYtxkTPocbInU-303" style="edgeStyle=orthogonalEdgeStyle;rounded=0;orthogonalLoop=1;jettySize=auto;html=1;" edge="1" parent="3urvQe0UYtxkTPocbInU-203" source="3urvQe0UYtxkTPocbInU-275" target="3urvQe0UYtxkTPocbInU-274">
          <mxGeometry relative="1" as="geometry" />
        </mxCell>
        <mxCell id="3urvQe0UYtxkTPocbInU-275" value="Добавление позиций из меню в заказ" style="points=[[0.25,0,0],[0.5,0,0],[0.75,0,0],[1,0.25,0],[1,0.5,0],[1,0.75,0],[0.75,1,0],[0.5,1,0],[0.25,1,0],[0,0.75,0],[0,0.5,0],[0,0.25,0]];shape=mxgraph.bpmn.task2;whiteSpace=wrap;rectStyle=rounded;size=10;html=1;container=1;expand=0;collapsible=0;taskMarker=abstract;isLoopComp=1;isLoopStandard=1;" vertex="1" parent="3urvQe0UYtxkTPocbInU-203">
          <mxGeometry x="240" y="100" width="135" height="70" as="geometry" />
        </mxCell>
        <mxCell id="3urvQe0UYtxkTPocbInU-302" style="edgeStyle=orthogonalEdgeStyle;rounded=0;orthogonalLoop=1;jettySize=auto;html=1;" edge="1" parent="3urvQe0UYtxkTPocbInU-203" source="3urvQe0UYtxkTPocbInU-276" target="3urvQe0UYtxkTPocbInU-275">
          <mxGeometry relative="1" as="geometry" />
        </mxCell>
        <mxCell id="3urvQe0UYtxkTPocbInU-276" value="Создать заказ" style="points=[[0.25,0,0],[0.5,0,0],[0.75,0,0],[1,0.25,0],[1,0.5,0],[1,0.75,0],[0.75,1,0],[0.5,1,0],[0.25,1,0],[0,0.75,0],[0,0.5,0],[0,0.25,0]];shape=mxgraph.bpmn.task2;whiteSpace=wrap;rectStyle=rounded;size=10;html=1;container=1;expand=0;collapsible=0;taskMarker=user;" vertex="1" parent="3urvQe0UYtxkTPocbInU-203">
          <mxGeometry x="120" y="100" width="100" height="70" as="geometry" />
        </mxCell>
        <mxCell id="3urvQe0UYtxkTPocbInU-277" style="edgeStyle=orthogonalEdgeStyle;rounded=0;orthogonalLoop=1;jettySize=auto;html=1;" edge="1" parent="3urvQe0UYtxkTPocbInU-203" source="3urvQe0UYtxkTPocbInU-281" target="3urvQe0UYtxkTPocbInU-283">
          <mxGeometry relative="1" as="geometry">
            <Array as="points">
              <mxPoint x="695" y="75" />
            </Array>
          </mxGeometry>
        </mxCell>
        <mxCell id="3urvQe0UYtxkTPocbInU-278" value="Списывать баллы" style="edgeLabel;html=1;align=center;verticalAlign=middle;resizable=0;points=[];" vertex="1" connectable="0" parent="3urvQe0UYtxkTPocbInU-277">
          <mxGeometry x="-0.1" relative="1" as="geometry">
            <mxPoint x="-22" y="-12" as="offset" />
          </mxGeometry>
        </mxCell>
        <mxCell id="3urvQe0UYtxkTPocbInU-279" style="edgeStyle=orthogonalEdgeStyle;rounded=0;orthogonalLoop=1;jettySize=auto;html=1;" edge="1" parent="3urvQe0UYtxkTPocbInU-203" source="3urvQe0UYtxkTPocbInU-281" target="3urvQe0UYtxkTPocbInU-289">
          <mxGeometry relative="1" as="geometry">
            <mxPoint x="900" y="210" as="targetPoint" />
            <Array as="points">
              <mxPoint x="695" y="190" />
              <mxPoint x="1070" y="190" />
              <mxPoint x="1070" y="135" />
            </Array>
          </mxGeometry>
        </mxCell>
        <mxCell id="3urvQe0UYtxkTPocbInU-280" value="Не списывать баллы" style="edgeLabel;html=1;align=center;verticalAlign=middle;resizable=0;points=[];" vertex="1" connectable="0" parent="3urvQe0UYtxkTPocbInU-279">
          <mxGeometry x="-0.8535" relative="1" as="geometry">
            <mxPoint as="offset" />
          </mxGeometry>
        </mxCell>
        <mxCell id="3urvQe0UYtxkTPocbInU-281" value="" style="points=[[0.25,0.25,0],[0.5,0,0],[0.75,0.25,0],[1,0.5,0],[0.75,0.75,0],[0.5,1,0],[0.25,0.75,0],[0,0.5,0]];shape=mxgraph.bpmn.gateway2;html=1;verticalLabelPosition=bottom;labelBackgroundColor=#ffffff;verticalAlign=top;align=center;perimeter=rhombusPerimeter;outlineConnect=0;outline=none;symbol=none;gwType=exclusive;" vertex="1" parent="3urvQe0UYtxkTPocbInU-203">
          <mxGeometry x="670" y="110" width="50" height="50" as="geometry" />
        </mxCell>
        <mxCell id="3urvQe0UYtxkTPocbInU-282" style="edgeStyle=orthogonalEdgeStyle;rounded=0;orthogonalLoop=1;jettySize=auto;html=1;" edge="1" parent="3urvQe0UYtxkTPocbInU-203" source="3urvQe0UYtxkTPocbInU-283" target="3urvQe0UYtxkTPocbInU-288">
          <mxGeometry relative="1" as="geometry" />
        </mxCell>
        <mxCell id="3urvQe0UYtxkTPocbInU-283" value="Проверка наличия баллов" style="points=[[0.25,0,0],[0.5,0,0],[0.75,0,0],[1,0.25,0],[1,0.5,0],[1,0.75,0],[0.75,1,0],[0.5,1,0],[0.25,1,0],[0,0.75,0],[0,0.5,0],[0,0.25,0]];shape=mxgraph.bpmn.task2;whiteSpace=wrap;rectStyle=rounded;size=10;html=1;container=1;expand=0;collapsible=0;taskMarker=script;" vertex="1" parent="3urvQe0UYtxkTPocbInU-203">
          <mxGeometry x="740" y="40" width="100" height="70" as="geometry" />
        </mxCell>
        <mxCell id="3urvQe0UYtxkTPocbInU-284" style="edgeStyle=orthogonalEdgeStyle;rounded=0;orthogonalLoop=1;jettySize=auto;html=1;" edge="1" parent="3urvQe0UYtxkTPocbInU-203" source="3urvQe0UYtxkTPocbInU-288" target="3urvQe0UYtxkTPocbInU-291">
          <mxGeometry relative="1" as="geometry">
            <Array as="points">
              <mxPoint x="895" y="30" />
            </Array>
          </mxGeometry>
        </mxCell>
        <mxCell id="3urvQe0UYtxkTPocbInU-285" value="Баллов достаточно" style="edgeLabel;html=1;align=center;verticalAlign=middle;resizable=0;points=[];" vertex="1" connectable="0" parent="3urvQe0UYtxkTPocbInU-284">
          <mxGeometry x="-0.5294" y="4" relative="1" as="geometry">
            <mxPoint x="-2" y="1" as="offset" />
          </mxGeometry>
        </mxCell>
        <mxCell id="3urvQe0UYtxkTPocbInU-286" style="edgeStyle=orthogonalEdgeStyle;rounded=0;orthogonalLoop=1;jettySize=auto;html=1;" edge="1" parent="3urvQe0UYtxkTPocbInU-203" source="3urvQe0UYtxkTPocbInU-288" target="3urvQe0UYtxkTPocbInU-289">
          <mxGeometry relative="1" as="geometry">
            <Array as="points">
              <mxPoint x="895" y="135" />
            </Array>
          </mxGeometry>
        </mxCell>
        <mxCell id="3urvQe0UYtxkTPocbInU-287" value="Баллов недостаточно" style="edgeLabel;html=1;align=center;verticalAlign=middle;resizable=0;points=[];" vertex="1" connectable="0" parent="3urvQe0UYtxkTPocbInU-286">
          <mxGeometry x="-0.6942" y="-1" relative="1" as="geometry">
            <mxPoint as="offset" />
          </mxGeometry>
        </mxCell>
        <mxCell id="3urvQe0UYtxkTPocbInU-288" value="" style="points=[[0.25,0.25,0],[0.5,0,0],[0.75,0.25,0],[1,0.5,0],[0.75,0.75,0],[0.5,1,0],[0.25,0.75,0],[0,0.5,0]];shape=mxgraph.bpmn.gateway2;html=1;verticalLabelPosition=bottom;labelBackgroundColor=#ffffff;verticalAlign=top;align=center;perimeter=rhombusPerimeter;outlineConnect=0;outline=none;symbol=none;gwType=exclusive;" vertex="1" parent="3urvQe0UYtxkTPocbInU-203">
          <mxGeometry x="870" y="50" width="50" height="50" as="geometry" />
        </mxCell>
        <mxCell id="3urvQe0UYtxkTPocbInU-307" style="edgeStyle=orthogonalEdgeStyle;rounded=0;orthogonalLoop=1;jettySize=auto;html=1;" edge="1" parent="3urvQe0UYtxkTPocbInU-203" source="3urvQe0UYtxkTPocbInU-289" target="3urvQe0UYtxkTPocbInU-300">
          <mxGeometry relative="1" as="geometry" />
        </mxCell>
        <mxCell id="3urvQe0UYtxkTPocbInU-289" value="Оплата заказа" style="points=[[0.25,0,0],[0.5,0,0],[0.75,0,0],[1,0.25,0],[1,0.5,0],[1,0.75,0],[0.75,1,0],[0.5,1,0],[0.25,1,0],[0,0.75,0],[0,0.5,0],[0,0.25,0]];shape=mxgraph.bpmn.task2;whiteSpace=wrap;rectStyle=rounded;size=10;html=1;container=1;expand=0;collapsible=0;taskMarker=user;" vertex="1" parent="3urvQe0UYtxkTPocbInU-203">
          <mxGeometry x="1090" y="110" width="130" height="50" as="geometry" />
        </mxCell>
        <mxCell id="3urvQe0UYtxkTPocbInU-290" style="edgeStyle=orthogonalEdgeStyle;rounded=0;orthogonalLoop=1;jettySize=auto;html=1;" edge="1" parent="3urvQe0UYtxkTPocbInU-203" source="3urvQe0UYtxkTPocbInU-291" target="3urvQe0UYtxkTPocbInU-289">
          <mxGeometry relative="1" as="geometry">
            <Array as="points">
              <mxPoint x="1070" y="45" />
              <mxPoint x="1070" y="135" />
            </Array>
          </mxGeometry>
        </mxCell>
        <mxCell id="3urvQe0UYtxkTPocbInU-291" value="Применение баллов" style="points=[[0.25,0,0],[0.5,0,0],[0.75,0,0],[1,0.25,0],[1,0.5,0],[1,0.75,0],[0.75,1,0],[0.5,1,0],[0.25,1,0],[0,0.75,0],[0,0.5,0],[0,0.25,0]];shape=mxgraph.bpmn.task2;whiteSpace=wrap;rectStyle=rounded;size=10;html=1;container=1;expand=0;collapsible=0;taskMarker=script;" vertex="1" parent="3urvQe0UYtxkTPocbInU-203">
          <mxGeometry x="960" y="10" width="100" height="70" as="geometry" />
        </mxCell>
        <mxCell id="3urvQe0UYtxkTPocbInU-300" value="" style="points=[[0.145,0.145,0],[0.5,0,0],[0.855,0.145,0],[1,0.5,0],[0.855,0.855,0],[0.5,1,0],[0.145,0.855,0],[0,0.5,0]];shape=mxgraph.bpmn.event;html=1;verticalLabelPosition=bottom;labelBackgroundColor=#ffffff;verticalAlign=top;align=center;perimeter=ellipsePerimeter;outlineConnect=0;aspect=fixed;outline=end;symbol=terminate2;" vertex="1" parent="3urvQe0UYtxkTPocbInU-203">
          <mxGeometry x="1260" y="110" width="50" height="50" as="geometry" />
        </mxCell>
        <mxCell id="3urvQe0UYtxkTPocbInU-236" value="Система" style="swimlane;horizontal=0;whiteSpace=wrap;html=1;" vertex="1" parent="3urvQe0UYtxkTPocbInU-202">
          <mxGeometry x="30" y="270" width="1330" height="150" as="geometry" />
        </mxCell>
        <mxCell id="3urvQe0UYtxkTPocbInU-292" value="" style="shape=datastore;html=1;labelPosition=center;verticalLabelPosition=bottom;align=center;verticalAlign=top;" vertex="1" parent="3urvQe0UYtxkTPocbInU-236">
          <mxGeometry x="760" y="45" width="50" height="50" as="geometry" />
        </mxCell>
        <mxCell id="3urvQe0UYtxkTPocbInU-293" value="" style="shape=datastore;html=1;labelPosition=center;verticalLabelPosition=bottom;align=center;verticalAlign=top;" vertex="1" parent="3urvQe0UYtxkTPocbInU-236">
          <mxGeometry x="1130" y="45" width="50" height="50" as="geometry" />
        </mxCell>
        <mxCell id="3urvQe0UYtxkTPocbInU-294" value="" style="endArrow=classic;dashed=1;html=1;rounded=0;exitX=0.5;exitY=0;exitDx=0;exitDy=0;endFill=1;" edge="1" parent="3urvQe0UYtxkTPocbInU-236" source="3urvQe0UYtxkTPocbInU-292">
          <mxGeometry width="50" height="50" relative="1" as="geometry">
            <mxPoint x="805" y="85" as="sourcePoint" />
            <mxPoint x="785" y="-160" as="targetPoint" />
          </mxGeometry>
        </mxCell>
        <mxCell id="3urvQe0UYtxkTPocbInU-295" value="Баланс бонусов" style="edgeLabel;html=1;align=center;verticalAlign=middle;resizable=0;points=[];" vertex="1" connectable="0" parent="3urvQe0UYtxkTPocbInU-294">
          <mxGeometry x="0.0085" y="4" relative="1" as="geometry">
            <mxPoint y="29" as="offset" />
          </mxGeometry>
        </mxCell>
        <mxCell id="3urvQe0UYtxkTPocbInU-296" value="" style="endArrow=classic;dashed=1;html=1;rounded=0;endFill=1;entryX=0.5;entryY=0;entryDx=0;entryDy=0;exitX=0.5;exitY=1;exitDx=0;exitDy=0;exitPerimeter=0;" edge="1" parent="3urvQe0UYtxkTPocbInU-202" target="3urvQe0UYtxkTPocbInU-293" source="3urvQe0UYtxkTPocbInU-289">
          <mxGeometry width="50" height="50" relative="1" as="geometry">
            <mxPoint x="1180" y="160" as="sourcePoint" />
            <mxPoint x="1145" y="200" as="targetPoint" />
            <Array as="points" />
          </mxGeometry>
        </mxCell>
        <mxCell id="3urvQe0UYtxkTPocbInU-297" value="Новый заказ" style="edgeLabel;html=1;align=center;verticalAlign=middle;resizable=0;points=[];" vertex="1" connectable="0" parent="3urvQe0UYtxkTPocbInU-296">
          <mxGeometry x="0.0085" y="4" relative="1" as="geometry">
            <mxPoint x="-4" y="-13" as="offset" />
          </mxGeometry>
        </mxCell>
        <mxCell id="3urvQe0UYtxkTPocbInU-310" value="&lt;span style=&quot;font-weight: 400;&quot;&gt;Информационная система сети франчайзинговых кофеен&lt;/span&gt;" style="swimlane;horizontal=0;whiteSpace=wrap;html=1;startSize=30;" vertex="1" parent="1">
          <mxGeometry x="2170" y="3730" width="730" height="420" as="geometry" />
        </mxCell>
        <mxCell id="3urvQe0UYtxkTPocbInU-311" value="Администратор" style="swimlane;horizontal=0;whiteSpace=wrap;html=1;" vertex="1" parent="3urvQe0UYtxkTPocbInU-310">
          <mxGeometry x="30" width="700" height="270" as="geometry" />
        </mxCell>
        <mxCell id="3urvQe0UYtxkTPocbInU-312" style="edgeStyle=orthogonalEdgeStyle;rounded=0;orthogonalLoop=1;jettySize=auto;html=1;" edge="1" parent="3urvQe0UYtxkTPocbInU-311" source="3urvQe0UYtxkTPocbInU-313" target="3urvQe0UYtxkTPocbInU-324">
          <mxGeometry relative="1" as="geometry" />
        </mxCell>
        <mxCell id="3urvQe0UYtxkTPocbInU-313" value="" style="points=[[0.145,0.145,0],[0.5,0,0],[0.855,0.145,0],[1,0.5,0],[0.855,0.855,0],[0.5,1,0],[0.145,0.855,0],[0,0.5,0]];shape=mxgraph.bpmn.event;html=1;verticalLabelPosition=bottom;labelBackgroundColor=#ffffff;verticalAlign=top;align=center;perimeter=ellipsePerimeter;outlineConnect=0;aspect=fixed;outline=standard;symbol=general;" vertex="1" parent="3urvQe0UYtxkTPocbInU-311">
          <mxGeometry x="50" y="110" width="50" height="50" as="geometry" />
        </mxCell>
        <mxCell id="3urvQe0UYtxkTPocbInU-323" style="edgeStyle=orthogonalEdgeStyle;rounded=0;orthogonalLoop=1;jettySize=auto;html=1;" edge="1" parent="3urvQe0UYtxkTPocbInU-311" source="3urvQe0UYtxkTPocbInU-324">
          <mxGeometry relative="1" as="geometry">
            <mxPoint x="240" y="134.9999999999991" as="targetPoint" />
          </mxGeometry>
        </mxCell>
        <mxCell id="3urvQe0UYtxkTPocbInU-324" value="Авторизация в веб-кабинете" style="points=[[0.25,0,0],[0.5,0,0],[0.75,0,0],[1,0.25,0],[1,0.5,0],[1,0.75,0],[0.75,1,0],[0.5,1,0],[0.25,1,0],[0,0.75,0],[0,0.5,0],[0,0.25,0]];shape=mxgraph.bpmn.task2;whiteSpace=wrap;rectStyle=rounded;size=10;html=1;container=1;expand=0;collapsible=0;taskMarker=user;" vertex="1" parent="3urvQe0UYtxkTPocbInU-311">
          <mxGeometry x="120" y="100" width="100" height="70" as="geometry" />
        </mxCell>
        <mxCell id="3urvQe0UYtxkTPocbInU-341" value="" style="points=[[0.145,0.145,0],[0.5,0,0],[0.855,0.145,0],[1,0.5,0],[0.855,0.855,0],[0.5,1,0],[0.145,0.855,0],[0,0.5,0]];shape=mxgraph.bpmn.event;html=1;verticalLabelPosition=bottom;labelBackgroundColor=#ffffff;verticalAlign=top;align=center;perimeter=ellipsePerimeter;outlineConnect=0;aspect=fixed;outline=end;symbol=terminate2;" vertex="1" parent="3urvQe0UYtxkTPocbInU-311">
          <mxGeometry x="590" y="110" width="50" height="50" as="geometry" />
        </mxCell>
        <mxCell id="3urvQe0UYtxkTPocbInU-376" style="edgeStyle=orthogonalEdgeStyle;rounded=0;orthogonalLoop=1;jettySize=auto;html=1;" edge="1" parent="3urvQe0UYtxkTPocbInU-311" source="3urvQe0UYtxkTPocbInU-349" target="3urvQe0UYtxkTPocbInU-354">
          <mxGeometry relative="1" as="geometry" />
        </mxCell>
        <mxCell id="3urvQe0UYtxkTPocbInU-349" value="Просмотр текущего меню" style="points=[[0.25,0,0],[0.5,0,0],[0.75,0,0],[1,0.25,0],[1,0.5,0],[1,0.75,0],[0.75,1,0],[0.5,1,0],[0.25,1,0],[0,0.75,0],[0,0.5,0],[0,0.25,0]];shape=mxgraph.bpmn.task2;whiteSpace=wrap;rectStyle=rounded;size=10;html=1;container=1;expand=0;collapsible=0;taskMarker=user;" vertex="1" parent="3urvQe0UYtxkTPocbInU-311">
          <mxGeometry x="240" y="100" width="100" height="70" as="geometry" />
        </mxCell>
        <mxCell id="3urvQe0UYtxkTPocbInU-358" style="edgeStyle=orthogonalEdgeStyle;rounded=0;orthogonalLoop=1;jettySize=auto;html=1;" edge="1" parent="3urvQe0UYtxkTPocbInU-311" source="3urvQe0UYtxkTPocbInU-354" target="3urvQe0UYtxkTPocbInU-341">
          <mxGeometry relative="1" as="geometry" />
        </mxCell>
        <mxCell id="3urvQe0UYtxkTPocbInU-354" value="Выбор позиций и редактирование цены" style="points=[[0.25,0,0],[0.5,0,0],[0.75,0,0],[1,0.25,0],[1,0.5,0],[1,0.75,0],[0.75,1,0],[0.5,1,0],[0.25,1,0],[0,0.75,0],[0,0.5,0],[0,0.25,0]];shape=mxgraph.bpmn.task2;whiteSpace=wrap;rectStyle=rounded;size=10;html=1;container=1;expand=0;collapsible=0;taskMarker=abstract;isLoopComp=1;isLoopStandard=1;" vertex="1" parent="3urvQe0UYtxkTPocbInU-311">
          <mxGeometry x="380" y="100" width="135" height="70" as="geometry" />
        </mxCell>
        <mxCell id="3urvQe0UYtxkTPocbInU-342" value="Система" style="swimlane;horizontal=0;whiteSpace=wrap;html=1;" vertex="1" parent="3urvQe0UYtxkTPocbInU-310">
          <mxGeometry x="30" y="270" width="700" height="150" as="geometry" />
        </mxCell>
        <mxCell id="3urvQe0UYtxkTPocbInU-350" value="" style="shape=datastore;html=1;labelPosition=center;verticalLabelPosition=bottom;align=center;verticalAlign=top;" vertex="1" parent="3urvQe0UYtxkTPocbInU-342">
          <mxGeometry x="262.5" y="55" width="50" height="50" as="geometry" />
        </mxCell>
        <mxCell id="3urvQe0UYtxkTPocbInU-355" value="" style="shape=datastore;html=1;labelPosition=center;verticalLabelPosition=bottom;align=center;verticalAlign=top;" vertex="1" parent="3urvQe0UYtxkTPocbInU-342">
          <mxGeometry x="422.5" y="55" width="50" height="50" as="geometry" />
        </mxCell>
        <mxCell id="3urvQe0UYtxkTPocbInU-351" value="" style="endArrow=classic;dashed=1;html=1;rounded=0;exitX=0.5;exitY=0;exitDx=0;exitDy=0;endFill=1;" edge="1" parent="3urvQe0UYtxkTPocbInU-310" source="3urvQe0UYtxkTPocbInU-350" target="3urvQe0UYtxkTPocbInU-349">
          <mxGeometry width="50" height="50" relative="1" as="geometry">
            <mxPoint x="337.5" y="365" as="sourcePoint" />
            <mxPoint x="318" y="170" as="targetPoint" />
          </mxGeometry>
        </mxCell>
        <mxCell id="3urvQe0UYtxkTPocbInU-352" value="Базовые позиции,&lt;br&gt;локальные позиции" style="edgeLabel;html=1;align=center;verticalAlign=middle;resizable=0;points=[];" vertex="1" connectable="0" parent="3urvQe0UYtxkTPocbInU-351">
          <mxGeometry x="0.0085" y="4" relative="1" as="geometry">
            <mxPoint x="3" y="-17" as="offset" />
          </mxGeometry>
        </mxCell>
        <mxCell id="3urvQe0UYtxkTPocbInU-356" value="" style="endArrow=classic;dashed=1;html=1;rounded=0;endFill=1;entryX=0.5;entryY=0;entryDx=0;entryDy=0;" edge="1" parent="3urvQe0UYtxkTPocbInU-310" source="3urvQe0UYtxkTPocbInU-354" target="3urvQe0UYtxkTPocbInU-355">
          <mxGeometry width="50" height="50" relative="1" as="geometry">
            <mxPoint x="430" y="310" as="sourcePoint" />
            <mxPoint x="480" y="170" as="targetPoint" />
          </mxGeometry>
        </mxCell>
        <mxCell id="3urvQe0UYtxkTPocbInU-357" value="Новая цена для позиции" style="edgeLabel;html=1;align=center;verticalAlign=middle;resizable=0;points=[];" vertex="1" connectable="0" parent="3urvQe0UYtxkTPocbInU-356">
          <mxGeometry x="0.0085" y="4" relative="1" as="geometry">
            <mxPoint x="3" y="-17" as="offset" />
          </mxGeometry>
        </mxCell>
        <mxCell id="3urvQe0UYtxkTPocbInU-359" value="&lt;span style=&quot;font-weight: 400;&quot;&gt;Информационная система сети франчайзинговых кофеен&lt;/span&gt;" style="swimlane;horizontal=0;whiteSpace=wrap;html=1;startSize=30;" vertex="1" parent="1">
          <mxGeometry x="2310" y="2420" width="730" height="420" as="geometry" />
        </mxCell>
        <mxCell id="3urvQe0UYtxkTPocbInU-360" value="Главный администратор" style="swimlane;horizontal=0;whiteSpace=wrap;html=1;" vertex="1" parent="3urvQe0UYtxkTPocbInU-359">
          <mxGeometry x="30" width="700" height="270" as="geometry" />
        </mxCell>
        <mxCell id="3urvQe0UYtxkTPocbInU-361" style="edgeStyle=orthogonalEdgeStyle;rounded=0;orthogonalLoop=1;jettySize=auto;html=1;" edge="1" parent="3urvQe0UYtxkTPocbInU-360" source="3urvQe0UYtxkTPocbInU-362" target="3urvQe0UYtxkTPocbInU-364">
          <mxGeometry relative="1" as="geometry" />
        </mxCell>
        <mxCell id="3urvQe0UYtxkTPocbInU-362" value="" style="points=[[0.145,0.145,0],[0.5,0,0],[0.855,0.145,0],[1,0.5,0],[0.855,0.855,0],[0.5,1,0],[0.145,0.855,0],[0,0.5,0]];shape=mxgraph.bpmn.event;html=1;verticalLabelPosition=bottom;labelBackgroundColor=#ffffff;verticalAlign=top;align=center;perimeter=ellipsePerimeter;outlineConnect=0;aspect=fixed;outline=standard;symbol=general;" vertex="1" parent="3urvQe0UYtxkTPocbInU-360">
          <mxGeometry x="50" y="110" width="50" height="50" as="geometry" />
        </mxCell>
        <mxCell id="3urvQe0UYtxkTPocbInU-363" style="edgeStyle=orthogonalEdgeStyle;rounded=0;orthogonalLoop=1;jettySize=auto;html=1;" edge="1" parent="3urvQe0UYtxkTPocbInU-360" source="3urvQe0UYtxkTPocbInU-364">
          <mxGeometry relative="1" as="geometry">
            <mxPoint x="240" y="134.9999999999991" as="targetPoint" />
          </mxGeometry>
        </mxCell>
        <mxCell id="3urvQe0UYtxkTPocbInU-364" value="Авторизация в веб-кабинете" style="points=[[0.25,0,0],[0.5,0,0],[0.75,0,0],[1,0.25,0],[1,0.5,0],[1,0.75,0],[0.75,1,0],[0.5,1,0],[0.25,1,0],[0,0.75,0],[0,0.5,0],[0,0.25,0]];shape=mxgraph.bpmn.task2;whiteSpace=wrap;rectStyle=rounded;size=10;html=1;container=1;expand=0;collapsible=0;taskMarker=user;" vertex="1" parent="3urvQe0UYtxkTPocbInU-360">
          <mxGeometry x="120" y="100" width="100" height="70" as="geometry" />
        </mxCell>
        <mxCell id="3urvQe0UYtxkTPocbInU-365" value="" style="points=[[0.145,0.145,0],[0.5,0,0],[0.855,0.145,0],[1,0.5,0],[0.855,0.855,0],[0.5,1,0],[0.145,0.855,0],[0,0.5,0]];shape=mxgraph.bpmn.event;html=1;verticalLabelPosition=bottom;labelBackgroundColor=#ffffff;verticalAlign=top;align=center;perimeter=ellipsePerimeter;outlineConnect=0;aspect=fixed;outline=end;symbol=terminate2;" vertex="1" parent="3urvQe0UYtxkTPocbInU-360">
          <mxGeometry x="590" y="110" width="50" height="50" as="geometry" />
        </mxCell>
        <mxCell id="3urvQe0UYtxkTPocbInU-377" style="edgeStyle=orthogonalEdgeStyle;rounded=0;orthogonalLoop=1;jettySize=auto;html=1;" edge="1" parent="3urvQe0UYtxkTPocbInU-360" source="3urvQe0UYtxkTPocbInU-366" target="3urvQe0UYtxkTPocbInU-368">
          <mxGeometry relative="1" as="geometry" />
        </mxCell>
        <mxCell id="3urvQe0UYtxkTPocbInU-366" value="Просмотр существующих точек" style="points=[[0.25,0,0],[0.5,0,0],[0.75,0,0],[1,0.25,0],[1,0.5,0],[1,0.75,0],[0.75,1,0],[0.5,1,0],[0.25,1,0],[0,0.75,0],[0,0.5,0],[0,0.25,0]];shape=mxgraph.bpmn.task2;whiteSpace=wrap;rectStyle=rounded;size=10;html=1;container=1;expand=0;collapsible=0;taskMarker=user;" vertex="1" parent="3urvQe0UYtxkTPocbInU-360">
          <mxGeometry x="240" y="100" width="100" height="70" as="geometry" />
        </mxCell>
        <mxCell id="3urvQe0UYtxkTPocbInU-367" style="edgeStyle=orthogonalEdgeStyle;rounded=0;orthogonalLoop=1;jettySize=auto;html=1;" edge="1" parent="3urvQe0UYtxkTPocbInU-360" source="3urvQe0UYtxkTPocbInU-368" target="3urvQe0UYtxkTPocbInU-365">
          <mxGeometry relative="1" as="geometry" />
        </mxCell>
        <mxCell id="3urvQe0UYtxkTPocbInU-368" value="Заполнение данных и присвоение ролей" style="points=[[0.25,0,0],[0.5,0,0],[0.75,0,0],[1,0.25,0],[1,0.5,0],[1,0.75,0],[0.75,1,0],[0.5,1,0],[0.25,1,0],[0,0.75,0],[0,0.5,0],[0,0.25,0]];shape=mxgraph.bpmn.task2;whiteSpace=wrap;rectStyle=rounded;size=10;html=1;container=1;expand=0;collapsible=0;taskMarker=abstract;isLoopComp=1;isLoopStandard=1;" vertex="1" parent="3urvQe0UYtxkTPocbInU-360">
          <mxGeometry x="380" y="100" width="135" height="70" as="geometry" />
        </mxCell>
        <mxCell id="3urvQe0UYtxkTPocbInU-369" value="Система" style="swimlane;horizontal=0;whiteSpace=wrap;html=1;" vertex="1" parent="3urvQe0UYtxkTPocbInU-359">
          <mxGeometry x="30" y="270" width="700" height="150" as="geometry" />
        </mxCell>
        <mxCell id="3urvQe0UYtxkTPocbInU-370" value="" style="shape=datastore;html=1;labelPosition=center;verticalLabelPosition=bottom;align=center;verticalAlign=top;" vertex="1" parent="3urvQe0UYtxkTPocbInU-369">
          <mxGeometry x="262.5" y="55" width="50" height="50" as="geometry" />
        </mxCell>
        <mxCell id="3urvQe0UYtxkTPocbInU-371" value="" style="shape=datastore;html=1;labelPosition=center;verticalLabelPosition=bottom;align=center;verticalAlign=top;" vertex="1" parent="3urvQe0UYtxkTPocbInU-369">
          <mxGeometry x="422.5" y="55" width="50" height="50" as="geometry" />
        </mxCell>
        <mxCell id="3urvQe0UYtxkTPocbInU-372" value="" style="endArrow=classic;dashed=1;html=1;rounded=0;exitX=0.5;exitY=0;exitDx=0;exitDy=0;endFill=1;" edge="1" parent="3urvQe0UYtxkTPocbInU-359" source="3urvQe0UYtxkTPocbInU-370" target="3urvQe0UYtxkTPocbInU-366">
          <mxGeometry width="50" height="50" relative="1" as="geometry">
            <mxPoint x="337.5" y="365" as="sourcePoint" />
            <mxPoint x="318" y="170" as="targetPoint" />
          </mxGeometry>
        </mxCell>
        <mxCell id="3urvQe0UYtxkTPocbInU-373" value="Точки кофеен" style="edgeLabel;html=1;align=center;verticalAlign=middle;resizable=0;points=[];" vertex="1" connectable="0" parent="3urvQe0UYtxkTPocbInU-372">
          <mxGeometry x="0.0085" y="4" relative="1" as="geometry">
            <mxPoint x="3" y="-17" as="offset" />
          </mxGeometry>
        </mxCell>
        <mxCell id="3urvQe0UYtxkTPocbInU-374" value="" style="endArrow=classic;dashed=1;html=1;rounded=0;endFill=1;entryX=0.5;entryY=0;entryDx=0;entryDy=0;" edge="1" parent="3urvQe0UYtxkTPocbInU-359" source="3urvQe0UYtxkTPocbInU-368" target="3urvQe0UYtxkTPocbInU-371">
          <mxGeometry width="50" height="50" relative="1" as="geometry">
            <mxPoint x="430" y="310" as="sourcePoint" />
            <mxPoint x="480" y="170" as="targetPoint" />
          </mxGeometry>
        </mxCell>
        <mxCell id="3urvQe0UYtxkTPocbInU-375" value="Данные о новой точке" style="edgeLabel;html=1;align=center;verticalAlign=middle;resizable=0;points=[];" vertex="1" connectable="0" parent="3urvQe0UYtxkTPocbInU-374">
          <mxGeometry x="0.0085" y="4" relative="1" as="geometry">
            <mxPoint x="3" y="-17" as="offset" />
          </mxGeometry>
        </mxCell>
      </root>
    </mxGraphModel>
  </diagram>
</mxfile>
